<?xml version="1.0" standalone="no"?>
<!DOCTYPE svg PUBLIC "-//W3C//DTD SVG 20010904//EN"
 "http://www.w3.org/TR/2001/REC-SVG-20010904/DTD/svg10.dtd">
<svg version="1.0" xmlns="http://www.w3.org/2000/svg"
 width="512.000000pt" height="512.000000pt" viewBox="0 0 512.000000 512.000000"
 preserveAspectRatio="xMidYMid meet">
<metadata>
Created by potrace 1.11, written by Peter Selinger 2001-2013
</metadata>
<g transform="translate(0.000000,512.000000) scale(0.100000,-0.100000)"
fill="#000000" stroke="none">
<path d="M300 4130 l0 -510 44 0 c24 0 64 -3 90 -6 40 -6 46 -10 46 -30 0 -20
5 -24 30 -24 l30 0 2 418 3 417 483 3 482 2 0 30 c0 27 -3 30 -29 30 -25 0
-30 4 -33 28 -2 22 -8 28 -35 30 -29 3 -33 7 -33 33 0 26 -3 29 -30 29 -27 0
-30 3 -30 30 l0 30 -510 0 -510 0 0 -510z"/>
<path d="M1440 4611 c0 -26 4 -30 33 -33 27 -2 33 -8 35 -30 3 -24 8 -28 33
-28 25 0 29 -4 29 -30 0 -28 1 -29 58 -32 54 -3 57 -5 60 -30 l3 -28 1284 -2
c706 -2 1287 -7 1292 -11 4 -5 9 -182 11 -393 l3 -384 60 0 c56 0 59 -1 59
-25 0 -24 3 -25 54 -25 52 0 54 1 60 31 3 17 6 260 6 540 l0 509 -1540 0
-1540 0 0 -29z"/>
<path d="M673 4333 c-10 -4 -13 -89 -13 -381 0 -207 3 -393 6 -414 l6 -36 114
-7 c109 -7 114 -8 114 -30 0 -21 5 -22 92 -29 50 -3 117 -6 150 -6 55 0 58 -1
58 -25 0 -22 4 -25 40 -26 22 -1 49 -3 60 -4 11 -1 76 -3 145 -4 124 -1 125
-1 125 -24 0 -24 2 -24 143 -31 143 -6 1496 -5 1680 2 95 3 97 4 97 28 l0 24
123 0 c68 0 165 3 215 6 88 7 92 8 92 30 0 24 2 24 99 24 54 0 119 3 145 6 40
6 46 10 46 30 0 19 -5 24 -25 24 -21 0 -25 5 -25 30 l0 30 -194 0 c-106 0
-214 3 -240 6 -40 6 -46 10 -46 30 0 24 -1 24 -109 24 -59 0 -129 3 -155 6
-40 6 -46 10 -46 30 0 23 -3 24 -74 24 -40 0 -94 3 -120 6 -40 6 -46 10 -46
30 0 23 -3 24 -74 24 -40 0 -94 3 -120 6 -40 6 -46 10 -46 30 0 22 -4 24 -44
24 -24 0 -64 3 -90 6 -39 6 -46 10 -46 29 0 21 -6 24 -60 30 -55 6 -60 9 -60
31 0 22 -4 24 -44 24 -24 0 -64 3 -90 6 -39 6 -46 10 -46 29 0 21 -6 24 -60
30 -54 6 -60 9 -60 30 0 21 -6 24 -60 30 -54 6 -60 9 -60 30 0 21 -6 24 -60
30 -54 6 -60 9 -60 30 0 21 -6 24 -60 30 -54 6 -60 9 -60 30 0 21 -6 24 -59
30 -55 6 -60 9 -63 33 -2 22 -9 28 -35 30 -27 3 -33 7 -33 28 l0 24 -512 1
c-282 0 -520 2 -528 3 -8 2 -21 1 -27 -1z"/>
<path d="M1870 4311 c0 -28 2 -29 60 -36 54 -6 60 -9 60 -30 0 -20 6 -23 55
-30 49 -6 55 -9 55 -29 0 -21 6 -24 60 -30 54 -6 60 -9 60 -30 0 -22 6 -24 65
-31 59 -6 65 -9 65 -30 0 -21 6 -24 60 -30 54 -6 60 -9 60 -30 0 -21 6 -24 60
-30 55 -6 60 -9 60 -31 0 -22 4 -24 44 -24 24 0 64 -3 90 -6 40 -6 46 -10 46
-30 0 -21 5 -24 38 -26 20 -1 46 -3 57 -4 11 -1 35 -2 53 -3 27 -1 32 -5 32
-25 0 -23 2 -24 120 -31 116 -7 120 -8 120 -30 0 -19 7 -23 46 -29 26 -3 82
-6 125 -6 76 0 79 -1 79 -24 0 -22 4 -23 83 -29 45 -4 124 -7 175 -7 91 0 92
0 92 -24 0 -23 4 -25 73 -31 39 -3 135 -5 212 -3 l140 3 0 352 c0 193 -4 355
-8 360 -5 4 -533 9 -1173 11 l-1164 2 0 -29z"/>
<path d="M4280 3465 c0 -21 5 -25 30 -25 25 0 30 4 30 25 0 21 -5 25 -30 25
-25 0 -30 -4 -30 -25z"/>
<path d="M3803 2892 l-302 -2 -3 -28 -3 -27 -152 -3 -153 -3 0 -29 0 -30 -120
0 -120 0 0 -30 0 -30 -120 0 -120 0 0 -30 0 -30 -90 0 -90 0 0 -30 0 -30 -90
0 -90 0 0 -30 0 -30 -65 0 -65 0 0 -30 0 -30 -85 0 -85 0 0 -30 0 -30 -60 0
c-60 0 -60 0 -60 -30 0 -29 -1 -29 -62 -32 -60 -3 -63 -4 -66 -30 -3 -27 -5
-28 -63 -28 -59 0 -59 0 -59 -30 0 -25 -4 -30 -25 -30 -21 0 -25 -5 -25 -30 0
-27 3 -30 30 -30 25 0 30 4 30 25 l0 25 175 0 175 0 -1 -22 c0 -22 -1 -22 -9
-3 l-9 20 -1 -20 -1 -20 -9 20 c-9 21 -9 21 -15 -7 -3 -15 29 -17 398 -17 221
-1 423 -4 450 -7 41 -6 47 -10 47 -30 l0 -24 203 0 c248 0 277 -4 277 -36 l0
-24 164 0 c90 0 184 -3 210 -6 40 -6 46 -10 46 -30 0 -23 2 -23 122 -26 122
-3 123 -3 128 -28 3 -14 13 -26 22 -28 13 -2 16 3 13 19 -2 12 -1 18 3 15 4
-4 7 -13 7 -19 0 -8 23 -13 61 -15 l61 -3 7 47 c3 26 6 242 6 480 l0 434 -32
1 c-18 1 -44 2 -58 2 -14 1 -161 1 -327 -1z"/>
<path d="M4280 2410 l0 -490 30 0 c25 0 30 -4 30 -25 0 -25 1 -25 90 -25 l90
0 0 509 0 508 -52 7 c-29 3 -83 6 -120 6 l-68 0 0 -490z"/>
<path d="M1028 2103 l-128 -4 0 -24 c0 -24 0 -24 -117 -27 l-118 -3 -3 -537
-2 -538 29 0 c25 0 30 4 33 28 3 26 6 27 61 30 56 3 57 4 57 32 0 26 4 30 29
30 25 0 30 4 33 28 3 26 6 27 61 30 56 3 57 4 57 32 0 30 0 30 60 30 l60 0 0
30 0 30 60 0 60 0 0 30 c0 30 0 30 59 30 58 0 60 1 63 28 3 27 3 27 91 30 l87
3 0 29 0 30 65 0 65 0 0 30 0 30 90 0 90 0 0 30 0 30 114 0 115 0 3 28 3 27
93 3 c89 3 92 4 92 26 0 20 6 24 46 30 26 3 107 6 180 6 l134 0 0 30 0 30 207
2 207 3 6 25 c4 17 13 25 28 26 12 1 256 2 542 3 l520 1 0 24 c0 23 -2 24
-127 32 -71 4 -138 7 -150 6 -18 -1 -23 4 -23 22 0 22 -4 23 -97 29 -54 4
-124 7 -155 7 -54 0 -58 1 -58 24 l0 24 -187 8 c-104 4 -196 7 -205 5 -13 -2
-18 5 -18 23 0 26 -1 26 -77 27 -43 1 -96 2 -118 3 -22 1 -126 3 -231 4 l-191
2 2 23 c2 18 -2 23 -21 23 -14 0 -24 -6 -24 -14 0 -11 3 -12 14 -3 17 15 28 1
15 -19 -7 -12 -9 -12 -9 -1 0 10 -3 11 -13 3 -10 -8 -13 -6 -14 10 -1 11 -5
23 -8 26 -6 7 -1221 10 -1437 5z m2028 -318 c-1 -8 -5 -17 -8 -21 -5 -4 -4 16
1 34 3 9 9 -1 7 -13z"/>
<path d="M393 2043 l-93 -4 0 -684 0 -685 30 0 c27 0 30 3 30 30 0 27 3 30 30
30 27 0 30 3 30 30 0 27 3 30 29 30 25 0 30 4 33 28 2 21 9 28 31 30 l27 3 0
600 0 599 -27 -2 c-16 -1 -70 -4 -120 -5z"/>
<path d="M3498 1673 c6 -2 18 -2 25 0 6 3 1 5 -13 5 -14 0 -19 -2 -12 -5z"/>
<path d="M3567 1673 c-15 -3 -25 -9 -22 -14 4 -5 -1 -9 -10 -9 -9 0 -14 -4
-11 -9 7 -11 276 -14 276 -2 0 5 11 11 25 13 17 4 25 1 25 -8 0 -10 17 -14 65
-14 58 0 65 2 65 20 0 15 7 20 25 20 18 0 25 -5 25 -20 0 -18 7 -20 60 -20 58
0 60 1 60 25 l0 26 -277 -3 c-153 -1 -290 -3 -306 -5z m23 -19 c0 -8 -19 -13
-24 -6 -3 5 1 9 9 9 8 0 15 -2 15 -3z"/>
<path d="M4280 1655 c0 -21 5 -25 30 -25 25 0 30 4 30 25 0 21 -5 25 -30 25
-25 0 -30 -4 -30 -25z"/>
<path d="M4363 1674 c22 -7 22 -24 0 -24 -9 0 -13 -3 -9 -7 10 -10 136 -11
130 -2 -2 4 -17 5 -33 4 -16 -1 -35 2 -43 7 -8 5 -4 7 15 4 15 -3 27 -1 27 4
0 5 -8 9 -17 9 -10 0 -34 3 -53 5 -19 3 -27 3 -17 0z"/>
<path d="M4485 1671 c-3 -5 -2 -12 3 -15 5 -3 9 1 9 9 0 17 -3 19 -12 6z"/>
<path d="M2770 1596 c0 -22 4 -24 60 -25 57 -1 60 1 60 24 0 29 -32 35 -57 10
-8 -8 -20 -12 -26 -8 -7 4 -4 9 9 14 15 6 12 8 -13 8 -28 1 -33 -2 -33 -23z"/>
<path d="M2352 1533 c3 -26 6 -27 51 -26 136 3 127 1 127 28 0 25 -1 25 -91
25 l-90 0 3 -27z"/>
<path d="M2548 1553 c6 -2 18 -2 25 0 6 3 1 5 -13 5 -14 0 -19 -2 -12 -5z"/>
<path d="M2168 1475 c3 -20 10 -25 33 -25 22 0 29 5 29 19 0 15 8 21 33 24 17
2 2 5 -34 5 -66 2 -66 2 -61 -23z"/>
<path d="M1930 1415 c0 -21 5 -25 30 -25 25 0 30 4 30 25 0 21 -5 25 -30 25
-25 0 -30 -4 -30 -25z"/>
<path d="M2018 1433 c7 -3 16 -2 19 1 4 3 -2 6 -13 5 -11 0 -14 -3 -6 -6z"/>
<path d="M1690 1355 c0 -24 3 -25 60 -25 57 0 60 1 60 25 0 24 -3 25 -60 25
-57 0 -60 -1 -60 -25z"/>
<path d="M1643 1313 c9 -2 23 -2 30 0 6 3 -1 5 -18 5 -16 0 -22 -2 -12 -5z"/>
<path d="M1330 1175 c0 -20 5 -25 25 -25 20 0 25 5 25 25 0 20 -5 25 -25 25
-20 0 -25 -5 -25 -25z"/>
<path d="M1226 1131 c-4 -5 3 -7 14 -4 23 6 26 13 6 13 -8 0 -17 -4 -20 -9z"/>
<path d="M1108 1073 c6 -2 18 -2 25 0 6 3 1 5 -13 5 -14 0 -19 -2 -12 -5z"/>
<path d="M970 991 c0 -31 13 -41 43 -33 11 3 17 14 17 33 0 26 -4 29 -30 29
-26 0 -30 -3 -30 -29z"/>
<path d="M850 935 c0 -21 5 -25 30 -25 25 0 30 4 30 25 0 21 -5 25 -30 25 -25
0 -30 -4 -30 -25z"/>
<path d="M610 749 c0 -27 3 -30 28 -27 21 2 28 9 30 31 3 24 0 27 -27 27 -28
0 -31 -3 -31 -31z"/>
<path d="M727 769 c9 -9 26 -9 65 -2 l53 10 -64 2 c-49 1 -62 -2 -54 -10z"/>
<path d="M4148 773 c12 -2 32 -2 45 0 12 2 2 4 -23 4 -25 0 -35 -2 -22 -4z"/>
<path d="M4248 773 c7 -3 16 -2 19 1 4 3 -2 6 -13 5 -11 0 -14 -3 -6 -6z"/>
<path d="M549 708 c-1 -7 -2 -21 -2 -30 0 -18 -19 -22 -94 -21 -17 0 -23 -6
-23 -22 0 -20 5 -22 59 -24 55 -1 58 0 57 21 -1 18 5 24 27 26 23 3 27 8 27
33 0 24 -4 29 -25 29 -14 0 -26 -6 -26 -12z"/>
<path d="M4450 635 c0 -21 5 -25 30 -25 25 0 30 4 30 25 0 21 -5 25 -30 25
-25 0 -30 -4 -30 -25z"/>
</g>
</svg>
