<svg version="1" xmlns="http://www.w3.org/2000/svg" width="933.333" height="933.333" viewBox="0 0 700.000000 700.000000"><path d="M335.7 38c-6.2 1.9-9.4 5.6-15.5 18.3-8.6 17.9-22 37.5-31.9 47l-3 2.8 2.8-10.8c1.5-5.9 3.4-13.3 4.3-16.5 2.3-8.6 2.5-10.1 1.4-15.1-1-5.1-6.9-12-11.6-13.8-9.8-3.7-20.5-.6-25.8 7.5-4.3 6.5-12 35.5-13.9 52.2-1 8.6-1.3 10.6-2.1 11.3-.3.3-2.8-1.8-5.6-4.8-3.4-3.7-6.9-9.4-11-18-3.7-7.6-7.3-13.7-9.2-15.3-13.3-11.7-34.6-1.9-34.6 15.9 0 7.9 6.7 23.4 16.2 37.1 9.2 13.4 27.2 26.3 41 29.4 2.9.6 5.4 1.3 5.6 1.4.2.1 1.4 4.4 2.7 9.5 1.3 5.2 4.4 15.9 6.9 23.8 5.9 18.6 7.7 27.3 7.8 38.5.1 11.6-3.6 28.1-6.1 27.1-7-2.9-23.3-7.5-31.1-8.9-5.2-1-10.5-1.9-11.7-2.2-2.1-.4-2.2-.8-1.6-6.7 2.8-27.4-1.8-56.5-12.8-80.6-8.2-17.7-24.8-38.4-35.1-43.5-7.1-3.5-14.1-3-20.8 1.5-11.8 8.1-12.4 22.6-1.2 33.3 11.6 11.1 19.8 25 24.3 41.1 2.8 10.4 2.9 11.3 3.5 29.2.3 9.8.1 15.4-.6 15.8-1.5.9-16-7.1-25.3-14.1-9.2-6.9-17.8-15-25-23.6-5.5-6.6-11.4-9.8-18-9.8-11.2 0-19.4 7.6-20.4 19-.8 8 1.6 12.6 12.3 23.9 24.9 26.4 54.7 44.7 83.9 51.6 7.2 1.7 8 1.8 18 2.9 13.3 1.5 15.3 1.8 24 3.6 9.4 1.9 15.5 3.8 23.1 7l4.5 2-2.9 4.2c-6.6 9.5-20.7 20.1-35.9 26.9-6.2 2.9-27.5 10.2-27.8 9.6-17-35.7-48.1-54.9-87.5-54.1-11.2.2-22.1 1.9-26.1 3.9-15.4 8-15.1 30.1.5 38.3 2.2 1.1 5.2 1.5 10.1 1.3 23-.9 29.8-.5 36.8 2.2 3.8 1.5 8.3 3.7 10 4.9 4 2.8 10.8 10 10.2 10.7-1.2 1.2-5.5 1.4-36 1.6-29.2.2-32.4.4-35.7 2.1-9.5 5-13.4 17-8.8 27.2 3.1 6.7 7.7 10.1 16.5 11.7 3.4.6 46 .7 57.7 0 20-1 36.5-2.7 44.8-4.5 2.5-.6 5.6-1.2 6.9-1.5 6.6-1.2 22.7-5.8 31.5-8.9 5.4-2 10.2-3.4 10.6-3.1.4.3.6 4.1.5 8.5-.4 9.6 1.4 14 7.6 19.3 7.9 6.8 19.4 6.3 27.2-1.1 5.5-5.2 7.1-10 7.2-21.7 0-8.5-.8-14.2-3.2-21.9l-1.8-5.9 7.7-7.9c4.3-4.3 7.8-8.3 7.8-8.8 0-2 2.8-.9 3.3 1.2 3.3 13.4 3.6 16 3.3 28.9-.2 7.5-.6 14.1-1 14.7-.3.5-.8 3-1.1 5.3-.3 2.4-3.3 12.3-6.5 22-3.3 9.7-6 18.6-6 19.7 0 2.1-.3 2.1-11.2 1.5-8.7-.4-11.8-.9-13.3-2.3-11.7-10.1-30.6-18.1-49-20.5-7.2-1-22.9-.7-31 .4-6.7 1-8 1.3-15 2.7-19.3 3.9-57.9 20.5-67.4 28.9-10.8 9.7-8 27.9 5.3 34.1 7.9 3.6 11.6 2.8 31.1-7 18.8-9.4 34.1-14.9 47.3-17 11.1-1.8 29.8-1.2 33.5 1.1 2.2 1.3-12.4 11.3-19.3 13.2-2.5.6-8 1.3-12.2 1.5-8.6.4-15 3.3-18.6 8.4-7.1 10-4.4 23.8 5.9 30.4 9 5.7 33.5 3.2 50.1-5.2 7.8-4 10-5.5 21.3-14.7 5-4.1 9.5-7.8 10.2-8.3.7-.6 1.6-1 2.1-1 .6 0 2.1-.6 3.5-1.3 3.5-1.8 13.8-2.1 19.8-.6 4.7 1.2 4.8 1.3 5.5 5.8 1.6 12.4 4 22 9.1 36.9 1.3 4.1 2.2 7.6 1.9 7.9-.3.3-3.8-.2-7.8-1-18.2-4-28.2-5-47.3-5.1-13.4-.1-24.3.6-30 1.8-18 3.7-40.5 13-43.8 17.9-.8 1.3-2.2 3.1-3 3.8-2.6 2.6-3.9 8.8-3.2 14.4 1.7 14.3 16.3 21.6 29.8 15.2 9-4.3 14.3-6 22.7-7.3 11.4-1.8 15.3-2.2 23.2-2.3l9-.2-.7 3.3c-1.5 7.4-5.7 18.3-9 23.4-1.9 3-3.9 7.3-4.4 9.5-3.9 17.2 14 30.5 30.2 22.4 6-3.1 8.4-5.5 12.5-12.7 4.6-8 10.5-24.4 12.7-35.3.4-1.7.8-3.5 1-4.2.3-.8 3.6-.3 11.7 1.8 22.1 5.8 21.5 5.5 25.8 12.9 4.6 7.8 18.9 28.4 27.5 39.5 3.5 4.4 8.7 13 11.8 19.1 7.7 15.4 12.3 19 24.7 19.4 7.1.3 7.4.2 11.2-3.4 10.1-9.5 9.9-19.9-.7-39.2-5.2-9.5-6-10.6-17.1-25.4-14.7-19.8-13.9-17.8-10-23.6 4.9-7.2 12.9-14.8 19.4-18.2 9.1-4.9 25.8-8.9 34.5-8.3.9 0 1.7.9 1.7 1.8 0 3 6.4 17.7 11 25.3 7.2 11.9 20.2 23.8 31.5 28.9 5.2 2.3 13.9 5.2 17.5 5.7 1.9.3 4.6.7 6 1 1.4.2 5.5.4 9.1.5 12.4.2 21.1-7 22.5-18.5 1.5-12.1-6.5-21.5-19.6-23-10.9-1.3-13.6-1.9-18-4.1-4.9-2.6-10.5-8-13.8-13.6-1.2-2-2.2-3.9-2.2-4.2 0-.3 8.4-.5 18.8-.4 16.9.1 35.9-.7 42.3-1.8 1.3-.2 4.7-.6 7.4-.9 2.8-.3 6.1-.8 7.5-1.1 2-.4 8-1.6 14.5-3 9.5-1.9 24.1-7.2 36-13.1 21.8-10.6 29.1-17.2 30.2-27.1.9-9.2-3.9-17.7-12.2-21.4-8-3.7-13.5-2.5-28 6-11 6.4-29.5 13.8-39.2 15.6-15.1 2.8-23.3 3.9-23.3 3.1 0-.2.4-1.5.9-2.9.5-1.3 1.2-4.1 1.5-6.3.4-2.1 1-4.2 1.5-4.7s3.5-1 6.7-1.3c10.6-.9 27.3-5.7 36.6-10.6 2.4-1.2 4.5-2.2 4.8-2.3 2.7-.3 28.2-18.1 36-25.2 8-7.1 10.2-16.5 6.2-25.5-5.8-13.1-20.7-15.7-33.8-5.8-3.3 2.4-6.1 4.7-6.4 5.1-1.3 1.8-20.5 14.1-26.1 16.6-5.8 2.7-19.7 6.8-20.4 6.1-.2-.2-.5-3-.8-6.3-.8-7.8-2.3-15.8-4.3-21.7-6.2-18.9-33.2-18.6-39.4.5-1.3 4.2-1 8.6 1.4 19.2 3.4 15.4.5 43-6.4 61.4l-1.8 4.6-25.9.1c-24.9.2-29.7.4-42.9 1.9l-6.1.7-1.3-3.1c-.7-1.8-1.1-3.3-.9-3.4.2-.2 2.9-1.1 5.9-2.1 13.6-4.7 25.5-12.2 32.5-20.6 7.7-9.2 13.8-24.9 15.3-39.5 1.6-15 0-22.7-6-28.2-5.5-5.1-15.4-6.8-22.6-3.8-8 3.4-11.8 9.5-12.7 20.6-1 12.8-3.2 19.6-8.2 24.7-2.7 2.8-7.2 5.7-7.8 5-.2-.2.5-4.3 1.5-9.3 2.1-9.7 1.9-14.9-.7-19.8-3.6-7.2-10.3-11.1-18.8-11.1-8.2 0-15.2 4.1-18.7 10.9-1.7 3.2-5.2 18.5-6.4 27.5-1 7.5-1 30.3 0 36.9 1.1 7.4 4.2 18.9 6.6 24.6 1.1 2.5 2 4.8 2 5.1 0 .2-1.7 1.4-3.7 2.8-2.1 1.3-6.9 5.2-10.6 8.6-3.7 3.4-6.9 6.1-7.1 5.9-.9-.9-6.1-13.1-9.7-22.9-7.5-19.7-10.2-33.4-10.3-50 0-17.8 2.3-28.5 9.1-41.3 9-17 36.9-45.4 57-58l4.3-2.7 8.7 3.6c23.3 9.7 47 16 71.8 19.2 6.9.9 32.8.9 39.5-.1 13.4-1.8 25.4-5.1 35.6-9.7l6.5-2.9 4 3.6c15.7 14.5 35.8 24.5 56.3 28 12.1 2 38.1.1 44.6-3.2 9.6-4.9 13.4-17.5 8.6-27.8-4.2-8.7-13.3-12.7-24-10.6-11.4 2.2-23.5 1.1-34.9-3.1-5.8-2.2-17.7-9.4-17.7-10.7 0-.8 7.9-5.3 9.3-5.3.4 0 2.6-.9 5-1.9 2.3-1 6.3-2.4 8.9-3 4.7-1.1 19.8-.8 25.3.6 1.7.4 6.4.7 10.5.7 6.4.1 8.1-.3 11.3-2.4 7.5-5 10.5-16.7 6.3-24.9-2.1-3.9-9-9.5-15.7-12.5-9.2-4.2-17.2-5.6-30.4-5.2-23.4.7-44 9.3-73.7 30.7-6.2 4.5-12.9 8.8-14.8 9.6-1.9.8-4.8 2.1-6.5 2.8-13.3 6-34.2 7.5-58 4.1-6.3-.9-19-3.8-20.9-4.8-2-1.1-2-1.1.1-1.9 5.8-2.1 20.7-12.5 28.8-20.1l4-3.8 10-.1c10.8-.1 19.1-.5 27-1.3 7.1-.7 15.7-1.6 17.5-2 .8-.1 3.8-.6 6.5-1 11.5-1.8 34.2-8.2 46-13 17.4-7.2 38.7-21.4 49-32.8 6.4-7 13.1-17.4 14-21.8 2.4-10.8-2.9-21.5-12.4-25.2-4.3-1.7-13.5-1.2-16.7.8-3.7 2.2-9.4 7.5-9.4 8.6 0 3.2-14.6 17.5-22.7 22.4-14.4 8.5-36.1 16.4-52.3 18.9-1.9.3-4.6.7-6 1-1.4.3-4.3.7-6.5.9-2.2.3-6.6.8-9.8 1.2l-5.9.7 1.4-2.9c.8-1.6 2.3-5.8 3.2-9.4 3-10.9 2.8-10.6 8.8-11.4 34.1-4.5 66.2-34.1 80.8-74.7 5.3-14.6 2.2-25.2-9-30.9-7.5-3.8-18.4-1.8-24.4 4.6-1.4 1.6-3.6 5.4-4.7 8.4-2.2 6-8.9 20.2-9.8 21-.3.3-2.6 3.4-5 7s-7 8.7-10.2 11.5c-5.9 5-18.6 11.8-20.3 10.8-.9-.6-.2-39 .8-43.3.3-1.4 1.1-5 1.7-8 1.9-9.4 5.9-18.7 13-30.6 6.1-10.3 7.1-12.8 7-18.7-.2-15-16.5-24.5-30.4-17.8-3.7 1.8-5.7 3.9-9.8 9.9-9 13.6-18.8 36.2-20.5 47.2-.9 5.2-1.4 5.5-3.8 1.8-4.1-6.1-9.4-20-11.1-28.7-.2-1.3-.6-3-.9-3.9-.3-.9-.8-4.2-1.2-7.2-.4-3-.8-6.6-1-8-.5-3.1-1.3-17.6-1.8-29.1-.3-10-2.7-15.3-8.5-19.3-11.9-8.1-26.5-3.4-32 10.2-2.4 5.7-1.3 41.8 1.4 49.9.2.7.1 1.3-.3 1.4-.4 0-1.6.3-2.7.5-3.6.8-4.9.7-15.6-.6-9.8-1.2-11.1-1.2-15.3.4-7.5 2.9-13.6 12-13.6 20.3 0 6.5 5.2 14.8 11.2 17.9 7.2 3.7 32.6 5.8 40.8 3.4 1.9-.5 4-1 4.7-1 .6 0 2.8 3.3 4.8 7.2 8.4 16.5 19.2 27.9 32.7 34.5 8.7 4.3 8 2.5 8 18.8 0 26.4-5.5 44.9-18.8 62.2-10.1 13.1-22 22-40.4 30.2-4.1 1.8-9.2 4.2-11.2 5.2-3.6 1.8-4.3 1.7-3.8-.6.1-.6.4-8.4.6-17.5.2-9.1.4-16.8.4-17.1 0-.4 1.4-1.2 3.1-1.9 4.2-1.8 16.7-14.2 21.3-21.3C419 234.6 427 215 427 207.3c0-11.3-9.1-20.3-20.7-20.3-6.2 0-11.8 2.5-15.5 6.9-1.4 1.6-4.2 7.1-6.2 12.3-2 5.1-4.5 10.8-5.5 12.7l-1.8 3.3-3.3-8.3c-8.2-20.7-20.6-42-27-46.4-8.2-5.7-20.8-4.1-27.3 3.6-6.3 7.3-6.9 16.3-1.8 25.3 1.6 2.8 5 8.6 7.4 12.9 3.9 6.7 10.9 23.6 12.2 29.4 4.4 18.9 4.8 22.3 4.9 40.3.1 20-.4 26.2-2.9 38.5-2.7 13.2-4.4 18.2-6.8 19.8-1.2.8-4.2 3.3-6.7 5.6-4.7 4.4-8.2 6.7-7.8 5.4.5-1.9-1.7-12.4-3.9-19.3-4.5-13.5-12.1-26.8-21.2-36.9l-3-3.3 1.8-3.7c2.1-4.1 6.7-18.8 7.5-24.1.3-1.9.8-4.9 1.1-6.5.6-3.6.7-25.2.1-28-.2-1.1-.7-4.2-1-6.9-.4-2.7-.9-5.2-1.1-5.5-.1-.3-.6-2.2-.9-4.1-.3-1.9-1.7-7.6-3.1-12.5-1.5-5-3.1-10.6-3.6-12.5-.5-1.9-1.2-4.2-1.4-5-1.3-4.6-4.5-16.6-4.5-17.1 0-.4 5.5-5.2 12.3-10.7 26.1-21.5 46.1-46.5 60-75.3 4.9-10.1 6.6-15.8 6.1-19.9-1-7-1.7-8.9-4.6-12.4-5.4-6.5-14.6-9.1-23.1-6.6z"/></svg>