<svg id="Layer_1" data-name="Layer 1" xmlns="http://www.w3.org/2000/svg" viewBox="0 0 264.06 239.54"><defs><style>.cls-1{fill:#fff;}.cls-2{fill:none;}</style></defs><title>v2</title><path class="cls-1" d="M25.47,127l-1-.6,2.13-3.14,2.47.45Zm4.79,15.4c-.19.32-.41.39-1.59.39-.73,0-1.44,0-2.17-.07-1,0-2.06-.06-3.09-.06s-2.06,0-3.09.06v-.6a1.52,1.52,0,0,0,1.48-1.59c.06-.64.06-1.33.06-2.45V132a5.8,5.8,0,0,0-.23-2.1,1.33,1.33,0,0,0-1.31-.9v-.61H30.37c0,.63,0,1.27,0,1.89s0,1,0,1.53H29.6c-.16-1.65-.86-2.1-3.42-2.1-.47,0-1.1,0-1.61,0,0,.84-.06,1.11-.06,2.36v2.49c.32,0,.57,0,1,0,2.24,0,2.92-.32,3.05-1.48h.77c0,.35,0,1.05,0,2.13s0,1.74,0,2.08h-.77c-.06-1.22-.64-1.52-2.86-1.52l-1.15,0c0,1.35,0,2.7,0,4.06,0,.9.15,1.2.66,1.33a6.23,6.23,0,0,0,1.48.11c2.32,0,3.14-.52,3.63-2.28l.84.17A14.25,14.25,0,0,1,30.26,142.43Z" transform="translate(-1.44 0.36)"/><path class="cls-1" d="M39.22,136.37c-.22,0-.32,0-.6,0l-.48-1.09c2-.13,3.14-1.12,3.14-2.75a2.78,2.78,0,0,0-2.81-2.95,3.72,3.72,0,0,0-.82.09c0,1.33,0,2.66,0,4v3.76c0,2.82,0,3.29.23,3.85a1.31,1.31,0,0,0,1.31.9v.6l-.51,0c-.56,0-1.33,0-2.36,0s-1.81,0-2.35,0l-.51,0v-.6a1.51,1.51,0,0,0,1.48-1.59A28.33,28.33,0,0,0,35,137.4V132a5.74,5.74,0,0,0-.24-2.1,1.33,1.33,0,0,0-1.31-.9v-.61a4.85,4.85,0,0,0,1,0c.36,0,.88,0,1.56,0,1.1,0,2.2-.1,3.29-.1,3.05,0,4.88,1.5,4.88,4C44.14,134.65,42.05,136.37,39.22,136.37Z" transform="translate(-1.44 0.36)"/><path class="cls-1" d="M58.74,129.5a2.86,2.86,0,0,0-.39,1.61c0,.92-.06,1.63-.06,3,0,.5,0,2,0,3.46a5.29,5.29,0,0,1-.86,3.31A5.43,5.43,0,0,1,52.68,143a5.72,5.72,0,0,1-3.35-.9c-1.5-1-2.08-2.24-2.08-4.51s0-3.33,0-4.08a18.23,18.23,0,0,0-.13-3.31c-.13-.78-.54-1.1-1.44-1.18v-.61l.5,0c.56,0,1.35,0,2.38,0s1.83,0,2.39,0l.49,0V129c-.67.08-1,.25-1.2.62a3.3,3.3,0,0,0-.3,1.7c0,1.35-.07,2.68-.07,4,0,3.7.09,4.41.75,5.18a3.21,3.21,0,0,0,2.43,1,3.25,3.25,0,0,0,3.27-2.17,13,13,0,0,0,.32-4v-2.12c0-2.45-.07-3.2-.3-3.57a1.34,1.34,0,0,0-1.12-.66v-.61c.86.05,1.16.05,2.23.05s1.4,0,2.26-.05V129A1.44,1.44,0,0,0,58.74,129.5Z" transform="translate(-1.44 0.36)"/><path class="cls-1" d="M72,141.74c-1,.77-2.15,1-4.34,1-1.16,0-2.34-.08-3.5-.08-.47,0-1.35,0-2,0l-.25,0v-.6c1-.09,1.39-.6,1.48-1.59a29.87,29.87,0,0,0,.08-3.16v-4.06a11.58,11.58,0,0,0-.23-3.41,1.38,1.38,0,0,0-1.33-.9v-.61c1,.05,1.56.05,2.94.05s3.11-.07,4.36-.07c2,0,3.78.95,3.78,3.18,0,1.66-1,2.77-3.07,3.29,2.27.45,3.48,1.76,3.48,3.89A3.51,3.51,0,0,1,72,141.74Zm-4.68-12.2c-.39,0-.78,0-1.16,0,0,1.4-.07,3.81-.09,4.71.24,0,.54,0,.94,0,2.11,0,3.31-.88,3.31-2.42S69.16,129.54,67.27,129.54Zm.06,6c-.37,0-.75,0-1.31.07,0,.58,0,.69,0,1.67v1.27a7.72,7.72,0,0,0,.19,2.28c.17.54.69.79,1.59.79a2.57,2.57,0,0,0,2.86-2.81A3.07,3.07,0,0,0,67.33,135.53Z" transform="translate(-1.44 0.36)"/><path class="cls-1" d="M85.52,142.45c-.19.3-.45.37-1.53.37-.53,0-1.09,0-1.63,0-1.33,0-2.53-.08-4-.08-1.1,0-1.83,0-2.52.06v-.6a1.35,1.35,0,0,0,1.06-.43c.38-.45.49-1,.49-2.58,0-1.07,0-1.93,0-3v-2.3c0-2.9,0-3.28-.24-3.86a1.35,1.35,0,0,0-1.33-.9v-.61l.54,0c.58,0,1.37,0,2.45,0s1.87,0,2.43,0l.53,0V129c-1.09,0-1.56.58-1.69,1.61a26,26,0,0,0-.07,3.15v3.59c0,3,0,3.35.3,3.65s.69.35,1.61.35a4.65,4.65,0,0,0,2.37-.43,2.72,2.72,0,0,0,1.26-1.87l.82.21A15.09,15.09,0,0,1,85.52,142.45Z" transform="translate(-1.44 0.36)"/><path class="cls-1" d="M93,142.73c-.54,0-1.33,0-2.34,0s-1.81,0-2.36,0l-.52,0v-.6c1-.09,1.4-.6,1.48-1.59a26,26,0,0,0,.09-3.16v-3.61c0-.55,0-1.13,0-1.76a5.64,5.64,0,0,0-.22-2.1,1.35,1.35,0,0,0-1.33-.9v-.61l.52,0c.55,0,1.33,0,2.36,0s1.8,0,2.34,0l.52,0V129A1.53,1.53,0,0,0,92,130.64c-.06.62-.06,1.22-.06,3.15v3.61c0,2.82,0,3.29.24,3.85a1.3,1.3,0,0,0,1.31.9v.6Z" transform="translate(-1.44 0.36)"/><path class="cls-1" d="M113.07,146.62a10.82,10.82,0,0,1-5.16-1.46,24.5,24.5,0,0,1-3.3-2.28,9.1,9.1,0,0,1-1.7.13c-4.34,0-7.22-2.84-7.22-7.11a7.33,7.33,0,0,1,7.67-7.73c4.42,0,7.37,2.83,7.37,7.09a7.68,7.68,0,0,1-4,7c.78.39,1.55.82,2.3,1.27,2.19,1.33,3.7,1.89,5.11,1.89a5.2,5.2,0,0,0,2.47-.62l.28.75A6.62,6.62,0,0,1,113.07,146.62Zm-10.14-17c-2.62,0-4.49,2.19-4.49,5.26,0,3.74,2.21,6.68,5,6.68,2.64,0,4.51-2.23,4.51-5.35C108,132.53,105.77,129.63,102.93,129.63Z" transform="translate(-1.44 0.36)"/><path class="cls-1" d="M125.61,129.5a2.88,2.88,0,0,0-.38,1.61c0,.92-.07,1.63-.07,3,0,.5,0,2,0,3.46a5.23,5.23,0,0,1-.86,3.31,5.43,5.43,0,0,1-4.77,2.17,5.72,5.72,0,0,1-3.35-.9c-1.5-1-2.08-2.24-2.08-4.51s0-3.33,0-4.08a19.18,19.18,0,0,0-.12-3.31c-.13-.78-.54-1.1-1.44-1.18v-.61l.49,0c.56,0,1.35,0,2.38,0s1.83,0,2.39,0l.49,0V129c-.66.08-1,.25-1.2.62a3.41,3.41,0,0,0-.3,1.7c0,1.35-.07,2.68-.07,4,0,3.7.09,4.41.76,5.18a3.17,3.17,0,0,0,2.42,1,3.25,3.25,0,0,0,3.27-2.17,12.64,12.64,0,0,0,.32-4v-2.12c0-2.45-.06-3.2-.3-3.57a1.34,1.34,0,0,0-1.12-.66v-.61c.86.05,1.16.05,2.24.05s1.39,0,2.25-.05V129A1.44,1.44,0,0,0,125.61,129.5Z" transform="translate(-1.44 0.36)"/><path class="cls-1" d="M138.71,142.43c-.19.32-.4.39-1.59.39-.73,0-1.43,0-2.17-.07-1,0-2.06-.06-3.09-.06s-2.06,0-3.09.06v-.6a1.51,1.51,0,0,0,1.48-1.59c.06-.64.06-1.33.06-2.45V132a5.8,5.8,0,0,0-.23-2.1,1.33,1.33,0,0,0-1.31-.9v-.61h10c0,.63,0,1.27,0,1.89s0,1,0,1.53h-.77c-.15-1.65-.86-2.1-3.42-2.1-.47,0-1.09,0-1.61,0,0,.84-.06,1.11-.06,2.36v2.49c.32,0,.58,0,1,0,2.24,0,2.92-.32,3.06-1.48h.77a21.08,21.08,0,0,0-.05,2.13c0,1.09,0,1.74.05,2.08H137c-.07-1.22-.65-1.52-2.86-1.52l-1.16,0c0,1.35,0,2.7,0,4.06,0,.9.15,1.2.66,1.33a6.32,6.32,0,0,0,1.49.11c2.32,0,3.13-.52,3.63-2.28l.83.17A14.25,14.25,0,0,1,138.71,142.43Z" transform="translate(-1.44 0.36)"/><path class="cls-1" d="M158.59,129.59c0-1.87-1.12-2.6-4.06-2.6-.6,0-1.17,0-1.82.08-.05,1.8-.05,3.05-.05,5.88.62,0,.93.05,1.38.05,2.41,0,3.14-.42,3.27-1.82h.94c0,.73-.05,1.48-.05,2.21,0,1,.05,2,.05,2.91h-.94c-.18-1.56-.78-1.87-3.51-1.87-.47,0-.65,0-1.14,0v2.91c0,.57,0,1.2,0,1.87.05,1.43.15,2.68,1.84,2.78v.73l-.62,0c-.65,0-1.62,0-2.84,0s-2.18,0-2.86,0l-.62,0V142a1.82,1.82,0,0,0,1.79-1.92,36.35,36.35,0,0,0,.08-3.82v-6.5a6.92,6.92,0,0,0-.29-2.55,1.6,1.6,0,0,0-1.58-1.09v-.73h12c-.05.49-.05,1.32-.05,2.42a15.68,15.68,0,0,0,.05,1.76Z" transform="translate(-1.44 0.36)"/><path class="cls-1" d="M173,142.92a2.68,2.68,0,0,1-1.69-.41,8.64,8.64,0,0,1-1.89-2.49c-.73-1.26-1.55-2.62-2.32-3.75a2,2,0,0,1-.32,0l-.6,0v1.13c0,.58,0,1.16,0,1.74a6.46,6.46,0,0,0,.21,2.11,1.34,1.34,0,0,0,1.31.9v.6l-.49,0c-.56,0-1.33,0-2.34,0s-1.77,0-2.32,0l-.52,0v-.6a1.34,1.34,0,0,0,1.05-.43,2,2,0,0,0,.43-1.16,26,26,0,0,0,.09-3.16v-3.61a15.45,15.45,0,0,0-.24-3.86c-.15-.58-.6-.82-1.33-.9v-.61a11.11,11.11,0,0,0,1.29,0c1.12,0,1.46,0,2.79-.07,1.16,0,1.83-.06,2.34-.06a5,5,0,0,1,3.08.73,3.54,3.54,0,0,1,1.35,2.81,4.25,4.25,0,0,1-3.14,3.93,36,36,0,0,1,2.21,3.24,15.46,15.46,0,0,0,1.92,2.58,1.6,1.6,0,0,0,.9.54v.6A7.72,7.72,0,0,1,173,142.92Zm-5.52-13.44a5.44,5.44,0,0,0-1.28.17c0,1.27,0,3.56,0,5.35a6.86,6.86,0,0,0,.94.06,2.69,2.69,0,0,0,2.94-2.77A2.62,2.62,0,0,0,167.44,129.48Z" transform="translate(-1.44 0.36)"/><path class="cls-1" d="M188.47,142.73c-.54,0-1.31,0-2.3,0s-1.78,0-2.32,0l-.5,0v-.6c.69,0,1.1-.41,1.1-1a3.93,3.93,0,0,0-.28-1.16c-.26-.79-.43-1.33-.69-2.06h-4.12l-.43,1.24a8.24,8.24,0,0,0-.49,2c0,.63.27.91,1,1v.6c-.81,0-1.11,0-2.15,0s-1.3,0-2.12,0v-.6a1,1,0,0,0,.66-.3,7.6,7.6,0,0,0,1.46-2.75l2.05-5.2c.55-1.39,1.39-3.65,2-5.48h1.46c.19.67.65,1.72,1,2.5l3,7.75a22,22,0,0,0,1.17,2.58,1.67,1.67,0,0,0,1.11.9v.6Zm-7-10.53c-.56,1.46-1.33,3.36-1.66,4.41H183Z" transform="translate(-1.44 0.36)"/><path class="cls-1" d="M203.76,129.67a3.62,3.62,0,0,0-.33,1.87c-.06,1.93-.08,4.94-.08,6.38v3.28c0,.5.06,1.25.06,1.55H202c-1.39-1.82-4.29-5.37-4.29-5.37-.35-.43-3-3.74-4.39-5.39,0,.45,0,.17,0,1.57V135c0,1.62,0,3.21.09,4.82a4,4,0,0,0,.34,1.76,1.14,1.14,0,0,0,1.16.62v.6c-.75,0-1.52,0-2.28,0s-1.52,0-2.29,0v-.6c1.42,0,1.46-1.22,1.5-2.34,0-.9,0-1.65,0-3v-4.53c0-1.78-.08-2.21-.4-2.69s-.5-.47-1.14-.53v-.61c.71.05,1,.05,1.87.05s1.13,0,1.84-.05a25.06,25.06,0,0,0,2.15,2.71c2.11,2.56,4,4.73,5.78,7v-4.68a16.74,16.74,0,0,0-.15-3.25,1.37,1.37,0,0,0-1.35-1.13v-.61c.88.05,1.18.05,2.27.05s1.4,0,2.28-.05V129A1.18,1.18,0,0,0,203.76,129.67Z" transform="translate(-1.44 0.36)"/><path class="cls-1" d="M218.75,142.24a10.94,10.94,0,0,1-4.32.77l-.19.86a2.67,2.67,0,0,1,.4,0,1.29,1.29,0,0,1,1.36,1.29c0,1.16-.93,2-2.39,2a3.17,3.17,0,0,1-1.29-.28l.3-.83a2.39,2.39,0,0,0,.78.17c.6,0,1-.3,1-.84s-.22-.69-.54-.69a.84.84,0,0,0-.47.17l-.48-.12.44-1.74a6.6,6.6,0,0,1-4.43-2,7.45,7.45,0,0,1-2-5.37c0-4.64,3-7.43,7.9-7.43a13.55,13.55,0,0,1,4.17.62c0,.49,0,1,0,1.46s0,1.14,0,1.63h-.84c-.34-1.52-1.57-2.34-3.52-2.34-3,0-4.88,2-4.88,5.37,0,3.87,2.17,6.68,5.16,6.68A3.37,3.37,0,0,0,218.4,139l.82.17A18.07,18.07,0,0,0,218.75,142.24Z" transform="translate(-1.44 0.36)"/><path class="cls-1" d="M233.65,142.73c-.54,0-1.31,0-2.3,0s-1.78,0-2.32,0l-.49,0v-.6c.68,0,1.09-.41,1.09-1a3.93,3.93,0,0,0-.28-1.16c-.25-.79-.43-1.33-.68-2.06h-4.13l-.43,1.24a8.24,8.24,0,0,0-.49,2c0,.63.28.91,1,1v.6c-.81,0-1.11,0-2.14,0s-1.31,0-2.13,0v-.6a1,1,0,0,0,.67-.3,7.77,7.77,0,0,0,1.46-2.75l2-5.2c.56-1.39,1.39-3.65,2-5.48h1.46c.2.67.65,1.72,1,2.5l3,7.75a20.76,20.76,0,0,0,1.16,2.58,1.67,1.67,0,0,0,1.11.9v.6Zm-7-10.53c-.56,1.46-1.33,3.36-1.65,4.41h3.17Z" transform="translate(-1.44 0.36)"/><path class="cls-1" d="M240.67,142.73c-.54,0-1.33,0-2.34,0s-1.81,0-2.36,0l-.52,0v-.6c1-.09,1.4-.6,1.48-1.59a26,26,0,0,0,.09-3.16v-3.61c0-.55,0-1.13,0-1.76a5.87,5.87,0,0,0-.22-2.1,1.35,1.35,0,0,0-1.33-.9v-.61l.52,0c.55,0,1.33,0,2.36,0s1.8,0,2.34,0l.51,0V129c-.92.06-1.39.64-1.48,1.61-.06.62-.06,1.22-.06,3.15v3.61c0,2.82,0,3.29.23,3.85a1.31,1.31,0,0,0,1.31.9v.6Z" transform="translate(-1.44 0.36)"/><path class="cls-1" d="M247.35,143a9,9,0,0,1-3.61-.73c-.07-.82-.22-2.06-.39-3.09l.82-.13a3.26,3.26,0,0,0,3.3,2.64c1.53,0,2.56-.8,2.56-2,0-1-.67-1.63-1.63-2.23L246.14,136c-1.54-1-2.45-2-2.45-3.91,0-2.41,1.83-4,4.66-4a7.5,7.5,0,0,1,3.53.77c0,.52,0,.69,0,1.35s0,1,0,1.59h-.82a2.66,2.66,0,0,0-2.75-2.4,2.09,2.09,0,0,0-2.3,2c0,1,.71,1.71,1.85,2.45l1.83,1.18c1.74,1.14,2.72,2.23,2.72,4C252.41,141.42,250.35,143,247.35,143Z" transform="translate(-1.44 0.36)"/><path class="cls-1" d="M264.61,142.43c-.19.32-.4.39-1.58.39-.73,0-1.44,0-2.17-.07-1,0-2.07-.06-3.1-.06s-2.06,0-3.09.06v-.6a1.5,1.5,0,0,0,1.48-1.59,23.43,23.43,0,0,0,.07-2.45V132a5.74,5.74,0,0,0-.24-2.1,1.33,1.33,0,0,0-1.31-.9v-.61h10.05c0,.63,0,1.27,0,1.89s0,1,0,1.53H264c-.15-1.65-.86-2.1-3.42-2.1-.47,0-1.09,0-1.61,0,0,.84-.06,1.11-.06,2.36v2.49c.32,0,.58,0,1,0,2.23,0,2.92-.32,3.05-1.48h.77a21.08,21.08,0,0,0,0,2.13c0,1.09,0,1.74,0,2.08h-.77c-.07-1.22-.65-1.52-2.86-1.52l-1.16,0c0,1.35,0,2.7,0,4.06,0,.9.15,1.2.67,1.33a6.18,6.18,0,0,0,1.48.11c2.32,0,3.13-.52,3.63-2.28l.84.17A14.09,14.09,0,0,1,264.61,142.43Z" transform="translate(-1.44 0.36)"/><path class="cls-1" d="M17.23,103.61a1,1,0,0,1-1.07-1,1.24,1.24,0,0,1,1.3-1.27.93.93,0,0,1,1,1A1.23,1.23,0,0,1,17.23,103.61ZM15,114.29c-.42,0-.69-.23-.69-.6a5.13,5.13,0,0,1,.17-1c.27-1.1.64-2.61.85-3.41a10.21,10.21,0,0,0,.42-2.13c0-.27-.12-.4-.35-.4a3.69,3.69,0,0,0-.82.19l-.15,0-.06-.58a9.79,9.79,0,0,1,2.85-.71c.31,0,.44.1.44.35a13.24,13.24,0,0,1-.49,2.39l-.31,1.23a17.07,17.07,0,0,0-.65,3.08.45.45,0,0,0,.48.5,4.19,4.19,0,0,0,1.15-.3l.05.59A9.88,9.88,0,0,1,15,114.29Z" transform="translate(-1.44 0.36)"/><path class="cls-1" d="M26.47,113.31a4.57,4.57,0,0,1-3.26,1c-1.63,0-2.62-.27-2.62-.69a5.71,5.71,0,0,1,.23-1.25l1.09-4.75c.36-1.53.63-2.74,1-4.45a11.82,11.82,0,0,0,.3-1.82c0-.25-.13-.4-.36-.4a4.19,4.19,0,0,0-.92.21l0-.61.25-.08a10,10,0,0,1,2.51-.59c.27,0,.44.13.44.36a15.8,15.8,0,0,1-.46,2.3L24,105.3c-.21.9-.27,1.23-.33,1.53a7,7,0,0,1,3.51-1.13c1.28,0,1.9.65,1.9,2A8.14,8.14,0,0,1,26.47,113.31Zm0-6.71a3,3,0,0,0-1.42.46,3.71,3.71,0,0,0-1.28,1,7.2,7.2,0,0,0-.82,2.4,15.66,15.66,0,0,0-.46,2.41c0,.4.46.63,1.3.63a2.53,2.53,0,0,0,2.13-1.17,8.83,8.83,0,0,0,1.47-4.46C27.37,107,27.05,106.6,26.45,106.6Z" transform="translate(-1.44 0.36)"/><path class="cls-1" d="M33.66,110.72c-.14,0-.33,0-.6,0a5.22,5.22,0,0,0-.09,1c0,1.07.38,1.63,1.11,1.63a5.63,5.63,0,0,0,2.74-1.13l.23.71a7.31,7.31,0,0,1-3.78,1.4c-1.3,0-2-.77-2-2.17,0-3.45,2.34-6.44,5-6.44,1.32,0,2.09.6,2.09,1.65C38.39,109.27,36.34,110.72,33.66,110.72Zm2.16-4.19c-1,0-2.07,1.38-2.6,3.41h.21c2,0,3.41-1,3.41-2.36A1,1,0,0,0,35.82,106.53Z" transform="translate(-1.44 0.36)"/><path class="cls-1" d="M46.78,108.4l-.69-.07a5.32,5.32,0,0,0,.06-.81c0-.38-.34-.65-.86-.65a1.26,1.26,0,0,0-.9.5c-.79.9-1.11,2.32-1.57,4.64l-.39,2c-.8,0-1,.07-1.82.17.21-.8.35-1.42.52-2.13l.46-2a14.11,14.11,0,0,0,.46-2.57c0-.52-.13-.75-.38-.75a2.19,2.19,0,0,0-.52.1l-.52.17-.06-.63a9.52,9.52,0,0,1,2.71-.75.33.33,0,0,1,.38.29,5,5,0,0,1,.13.9,4.41,4.41,0,0,1,2.36-1.21,2.54,2.54,0,0,1,1.38.56A10.9,10.9,0,0,0,46.78,108.4Z" transform="translate(-1.44 0.36)"/><path class="cls-1" d="M53.87,107l-1.74,0-.88,4.29a8.51,8.51,0,0,0-.25,1.59c0,.29.15.46.42.46a4.81,4.81,0,0,0,1-.23l.21-.06.06.6a9.18,9.18,0,0,1-2.82.73c-.44,0-.71-.2-.71-.6a6.49,6.49,0,0,1,.25-1.53c.19-.73.33-1.34.5-2.15l.65-3.1-1.11,0,.15-.67c1.42-.25,1.9-1.38,2.3-2.59l1-.21L52.34,106l1.73,0Z" transform="translate(-1.44 0.36)"/><path class="cls-1" d="M60.28,104.4l-.66-.54L62.17,101l1.88.46ZM58,110.72c-.14,0-.33,0-.6,0a5.22,5.22,0,0,0-.09,1c0,1.07.38,1.63,1.11,1.63a5.63,5.63,0,0,0,2.74-1.13l.23.71a7.31,7.31,0,0,1-3.78,1.4c-1.3,0-2-.77-2-2.17,0-3.45,2.34-6.44,5-6.44,1.32,0,2.09.6,2.09,1.65C62.69,109.27,60.64,110.72,58,110.72Zm2.16-4.19c-1,0-2.07,1.38-2.6,3.41h.21c2,0,3.41-1,3.41-2.36A1,1,0,0,0,60.12,106.53Z" transform="translate(-1.44 0.36)"/><path class="cls-1" d="M96.22,98.71l-.67-.54,2.55-2.89,1.91.46Zm4,4.46h-.6c0-.23,0-.32,0-.46,0-1.15-.75-1.55-2.85-1.55-.69,0-1.35,0-2,.06-.44,1.74-.74,3.24-1.09,5.11h.77a14.93,14.93,0,0,0,2.39-.11,1.78,1.78,0,0,0,1.46-1.44h.56c-.29,1.23-.64,3-.79,4h-.57a1.93,1.93,0,0,0,0-.35c0-.9-.57-1.19-2.28-1.19-1,0-1.4,0-1.78,0-.11.52,0,.06-.48,2.47a14,14,0,0,0-.32,2.28c0,.73.38.92,1.78.92,2.64,0,3.45-.42,4.27-2.22l.52.21A11.69,11.69,0,0,1,98,113.83c-.21.23-.48.3-1.36.3s-1.49,0-2.22,0c-1,0-1.94,0-2.91,0l-2.92,0,.08-.44A1.66,1.66,0,0,0,90,113a5.73,5.73,0,0,0,.83-2.18c.27-1.17.36-1.65.84-4l.33-1.66a18,18,0,0,0,.46-3.17c0-.93-.33-1.3-1.23-1.41l.08-.46h9.52C100.55,101.05,100.34,102.18,100.19,103.17Z" transform="translate(-1.44 0.36)"/><path class="cls-1" d="M110.53,107l-1.43,0a2.3,2.3,0,0,1,.34,1.26,3.51,3.51,0,0,1-3.7,3.41,3.88,3.88,0,0,1-1.13-.17c-.53.31-.69.46-.69.65s.23.33,1.15.62l1.67.53c1.67.52,2.49,1,2.49,2.24,0,2.21-2.2,4-5,4-2.3,0-3.7-1.09-3.7-2.87,0-1.63,1-2.4,2.76-2.84-1.05-.38-1.28-.55-1.28-.9s.61-1,1.86-1.72a2.17,2.17,0,0,1-1-1.9,3.51,3.51,0,0,1,3.68-3.49,3.71,3.71,0,0,1,1.4.23h2.76Zm-4-.46a2.4,2.4,0,0,0-2,2.62,1.46,1.46,0,0,0,1.38,1.65,2.34,2.34,0,0,0,2-2.57C107.87,107.14,107.35,106.49,106.53,106.49Zm.31,8.47c-.71-.27-1.56-.56-2.44-.81a2.91,2.91,0,0,0-2.45,2.63c0,1.13,1,1.88,2.47,1.88,1.82,0,3.49-1.23,3.49-2.57C107.91,115.59,107.6,115.26,106.84,115Z" transform="translate(-1.44 0.36)"/><path class="cls-1" d="M118.38,114.31c-.37,0-.5-.23-.69-1.25a7.64,7.64,0,0,1-3.78,1.28c-1.26,0-2-.65-2-1.8a8.17,8.17,0,0,1,1.38-4A5.32,5.32,0,0,1,118,105.7a10.61,10.61,0,0,1,2.7.39l-.1.34a28.91,28.91,0,0,0-1.3,6c0,.56.13.88.38.88a5.09,5.09,0,0,0,1.13-.32l.06.65A11,11,0,0,1,118.38,114.31Zm-1-7.73c-.84,0-1.67.62-2.38,1.8a8.76,8.76,0,0,0-1.36,4.07c0,.65.31,1,.83,1a5,5,0,0,0,2.66-1.22,3.18,3.18,0,0,0,.67-1.5,32.76,32.76,0,0,0,.84-3.85A3.13,3.13,0,0,0,117.42,106.58Z" transform="translate(-1.44 0.36)"/><path class="cls-1" d="M127.65,102c-.69,2.78-1.38,5.87-2.05,8.82a11.54,11.54,0,0,0-.32,1.91.4.4,0,0,0,.46.46,4.94,4.94,0,0,0,1.15-.26l0,.59a10.87,10.87,0,0,1-2.93.77.57.57,0,0,1-.63-.62,9.44,9.44,0,0,1,.38-2c.65-2.76,1.36-5.71,1.92-8.34.25-1.22.38-1.82.38-2a.33.33,0,0,0-.36-.38,3,3,0,0,0-.92.21l0-.63a11.16,11.16,0,0,1,2.82-.67c.3,0,.44.13.44.36A9.9,9.9,0,0,1,127.65,102Z" transform="translate(-1.44 0.36)"/><path class="cls-1" d="M132.83,103.61a1,1,0,0,1-1.06-1,1.23,1.23,0,0,1,1.29-1.27.93.93,0,0,1,1,1A1.24,1.24,0,0,1,132.83,103.61Zm-2.28,10.68c-.42,0-.69-.23-.69-.6a6.09,6.09,0,0,1,.17-1c.27-1.1.65-2.61.86-3.41a11,11,0,0,0,.42-2.13c0-.27-.13-.4-.36-.4a3.69,3.69,0,0,0-.82.19l-.14,0-.06-.58a9.67,9.67,0,0,1,2.84-.71c.31,0,.44.1.44.35a13.73,13.73,0,0,1-.48,2.39l-.32,1.23a16.48,16.48,0,0,0-.64,3.08.44.44,0,0,0,.48.5,4.27,4.27,0,0,0,1.15-.3l0,.59A9.88,9.88,0,0,1,130.55,114.29Z" transform="translate(-1.44 0.36)"/><path class="cls-1" d="M141.07,107l-1.74,0-.88,4.29a8.51,8.51,0,0,0-.25,1.59c0,.29.15.46.42.46a4.65,4.65,0,0,0,1-.23l.21-.06.06.6a9,9,0,0,1-2.82.73c-.44,0-.71-.2-.71-.6a6.49,6.49,0,0,1,.25-1.53c.19-.73.34-1.34.5-2.15l.65-3.1-1.11,0,.15-.67c1.42-.25,1.9-1.38,2.3-2.59l1-.21-.52,2.47,1.74,0Z" transform="translate(-1.44 0.36)"/><path class="cls-1" d="M147.49,104.4l-.67-.54,2.55-2.89,1.88.46Zm-2.32,6.32c-.15,0-.34,0-.61,0a6.09,6.09,0,0,0-.08,1c0,1.07.37,1.63,1.1,1.63a5.63,5.63,0,0,0,2.74-1.13l.23.71a7.28,7.28,0,0,1-3.78,1.4c-1.3,0-2-.77-2-2.17,0-3.45,2.34-6.44,5-6.44,1.32,0,2.09.6,2.09,1.65C149.89,109.27,147.84,110.72,145.17,110.72Zm2.15-4.19c-1,0-2.07,1.38-2.59,3.41h.21c1.94,0,3.4-1,3.4-2.36A1,1,0,0,0,147.32,106.53Z" transform="translate(-1.44 0.36)"/><path class="cls-1" d="M187.11,103.15h-.61c0-.21.05-.38.05-.48a1.39,1.39,0,0,0-.4-1c-.4-.38-1.13-.52-2.72-.52-.44,0-1,0-1.55,0-.38,1.71-.71,3.37-1.08,5.15l1.19,0c2.32,0,2.78-.21,3.22-1.57h.56a37.66,37.66,0,0,0-.79,4.08h-.59a3.52,3.52,0,0,0,0-.36,1.07,1.07,0,0,0-.4-.88c-.35-.27-.77-.33-2-.33-.67,0-.86,0-1.41,0l-.27,1.4a22.75,22.75,0,0,0-.54,3.53,1.2,1.2,0,0,0,1.23,1.36l-.08.44-.34,0-1.88,0c-.83,0-2.38,0-2.65,0l-.36,0,.08-.44a1.64,1.64,0,0,0,1.3-.64,5.25,5.25,0,0,0,.84-2.18c.29-1.19.4-1.82.83-4l.34-1.66a19.3,19.3,0,0,0,.46-3.17c0-.93-.33-1.3-1.23-1.41l.08-.46h9.29C187.49,101.05,187.28,102.14,187.11,103.15Z" transform="translate(-1.44 0.36)"/><path class="cls-1" d="M194.24,108.4l-.7-.07a4.28,4.28,0,0,0,.07-.81c0-.38-.34-.65-.86-.65a1.26,1.26,0,0,0-.9.5c-.79.9-1.11,2.32-1.57,4.64l-.39,2c-.8,0-1,.07-1.82.17.21-.8.35-1.42.52-2.13l.46-2a14.11,14.11,0,0,0,.46-2.57c0-.52-.13-.75-.38-.75a2.19,2.19,0,0,0-.52.1l-.52.17-.07-.63a9.65,9.65,0,0,1,2.72-.75.33.33,0,0,1,.38.29,5,5,0,0,1,.12.9,4.46,4.46,0,0,1,2.37-1.21,2.57,2.57,0,0,1,1.38.56A10.9,10.9,0,0,0,194.24,108.4Z" transform="translate(-1.44 0.36)"/><path class="cls-1" d="M202.49,114.31c-.38,0-.51-.23-.69-1.25a7.7,7.7,0,0,1-3.79,1.28c-1.25,0-2-.65-2-1.8a8.2,8.2,0,0,1,1.39-4,5.31,5.31,0,0,1,4.66-2.86,10.67,10.67,0,0,1,2.7.39l-.11.34a28.91,28.91,0,0,0-1.3,6c0,.56.13.88.38.88a5,5,0,0,0,1.13-.32l.06.65A11,11,0,0,1,202.49,114.31Zm-1-7.73c-.83,0-1.67.62-2.38,1.8a8.76,8.76,0,0,0-1.36,4.07c0,.65.31,1,.84,1a5,5,0,0,0,2.65-1.22,3.09,3.09,0,0,0,.67-1.5,30.86,30.86,0,0,0,.84-3.85A3.13,3.13,0,0,0,201.52,106.58Z" transform="translate(-1.44 0.36)"/><path class="cls-1" d="M212.46,107l-1.73,0-.88,4.29a8.51,8.51,0,0,0-.25,1.59c0,.29.14.46.41.46a4.69,4.69,0,0,0,1-.23l.21-.06.06.6a9.16,9.16,0,0,1-2.83.73c-.43,0-.71-.2-.71-.6a6.61,6.61,0,0,1,.26-1.53c.18-.73.33-1.34.5-2.15l.65-3.1L208,107l.14-.67c1.43-.25,1.91-1.38,2.3-2.59l1-.21-.53,2.47,1.74,0Z" transform="translate(-1.44 0.36)"/><path class="cls-1" d="M216.56,110.72c-.15,0-.33,0-.61,0a6.09,6.09,0,0,0-.08,1c0,1.07.38,1.63,1.11,1.63a5.63,5.63,0,0,0,2.74-1.13l.23.71a7.31,7.31,0,0,1-3.79,1.4c-1.29,0-2-.77-2-2.17,0-3.45,2.34-6.44,5-6.44,1.31,0,2.09.6,2.09,1.65C221.29,109.27,219.24,110.72,216.56,110.72Zm2.16-4.19c-1,0-2.08,1.38-2.6,3.41h.21c1.95,0,3.41-1,3.41-2.36A1,1,0,0,0,218.72,106.53Z" transform="translate(-1.44 0.36)"/><path class="cls-1" d="M229.67,108.4l-.68-.07a5.32,5.32,0,0,0,.06-.81c0-.38-.34-.65-.86-.65a1.25,1.25,0,0,0-.9.5c-.8.9-1.11,2.32-1.57,4.64l-.4,2c-.79,0-1,.07-1.82.17.21-.8.36-1.42.53-2.13l.46-2a14.11,14.11,0,0,0,.46-2.57c0-.52-.13-.75-.38-.75a2.19,2.19,0,0,0-.52.1l-.52.17-.07-.63a9.65,9.65,0,0,1,2.72-.75.33.33,0,0,1,.38.29,5,5,0,0,1,.12.9,4.43,4.43,0,0,1,2.37-1.21,2.57,2.57,0,0,1,1.38.56A11.64,11.64,0,0,0,229.67,108.4Z" transform="translate(-1.44 0.36)"/><path class="cls-1" d="M238,114.31a.6.6,0,0,1-.67-.62,10.06,10.06,0,0,1,.34-1.76l.21-.88a23.4,23.4,0,0,0,.77-3.85c0-.31-.14-.48-.44-.48a3.51,3.51,0,0,0-1.56.59,4.07,4.07,0,0,0-1.43,1.19,7.7,7.7,0,0,0-.58,2c-.34,1.52-.55,2.57-.71,3.55-.82.06-1,.09-1.85.19.42-1.57.74-2.87,1-4.31a15.34,15.34,0,0,0,.44-2.47c0-.48-.15-.71-.46-.71a4.65,4.65,0,0,0-1,.25l0-.58a9.14,9.14,0,0,1,2.6-.69c.46,0,.6.27.6,1.25v.17a9.79,9.79,0,0,1,4.35-1.42c.69,0,1,.16,1,.58a13.47,13.47,0,0,1-.57,2.83c-.25,1-.48,2-.56,2.44a6.86,6.86,0,0,0-.19,1.22.42.42,0,0,0,.46.48,4,4,0,0,0,1.08-.27l.07.6A12.12,12.12,0,0,1,238,114.31Z" transform="translate(-1.44 0.36)"/><path class="cls-1" d="M246.82,103.61a1,1,0,0,1-1.07-1,1.23,1.23,0,0,1,1.3-1.27.93.93,0,0,1,1,1A1.23,1.23,0,0,1,246.82,103.61Zm-2.28,10.68c-.42,0-.69-.23-.69-.6a5.77,5.77,0,0,1,.16-1c.27-1.1.65-2.61.86-3.41a10.21,10.21,0,0,0,.42-2.13c0-.27-.12-.4-.35-.4a3.69,3.69,0,0,0-.82.19l-.15,0-.06-.58a9.82,9.82,0,0,1,2.84-.71c.32,0,.44.1.44.35a12.71,12.71,0,0,1-.48,2.39l-.31,1.23a16.08,16.08,0,0,0-.65,3.08.45.45,0,0,0,.48.5,4.27,4.27,0,0,0,1.15-.3l0,.59A9.83,9.83,0,0,1,244.54,114.29Z" transform="translate(-1.44 0.36)"/><path class="cls-1" d="M255.05,107l-1.73,0-.88,4.29a8.51,8.51,0,0,0-.25,1.59c0,.29.14.46.42.46a5,5,0,0,0,1-.23l.21-.06.06.6a9.18,9.18,0,0,1-2.82.73c-.44,0-.72-.2-.72-.6a7.07,7.07,0,0,1,.25-1.53c.19-.73.34-1.34.51-2.15l.65-3.1-1.11,0,.14-.67c1.42-.25,1.91-1.38,2.3-2.59l1-.21-.52,2.47,1.73,0Z" transform="translate(-1.44 0.36)"/><path class="cls-1" d="M163.41,110.42a2.54,2.54,0,1,0-2.54-2.54A2.54,2.54,0,0,0,163.41,110.42Z" transform="translate(-1.44 0.36)"/><path class="cls-1" d="M76.27,110.42a2.54,2.54,0,1,0-2.54-2.54A2.54,2.54,0,0,0,76.27,110.42Z" transform="translate(-1.44 0.36)"/><path class="cls-1" d="M3.28.2C8.66-.8,14.05-.2,19.43,0c34.5,0,68.8-.2,103.3,0-2.39,1.19-5.18,2.19-7,4.38-1.59,2-3.19,4-3.79,6.38a17,17,0,0,0-5.58,6.39c-1.8,3.39-4.39,6.38-4,10.17.4,3.19,1.2,6.18,1.79,9.57a20.81,20.81,0,0,0,.8,3.39c.4,1.19,0,2.59.6,3.59.4.6.2,1.39,1,1.79v.8c.2.2.2.4.6.4v.8c1.59,2,3.59,3.79,4.58,6,.4,1.2-2,.6-3,.2-2-1-3.19-2.59-4.78-4a.69.69,0,0,0-.21.4c.8,1.4,3.79,3.19,2.2,4.19-.8.4-1.8-.6-2.59.2-.2.4,0,.79,0,1.19-1.2-.79-2.4-.4-3.59-.79-.8-.2-1-1.8-2-1.8a48.94,48.94,0,0,0-7.58-1.39c-3.58-.4-7-1-10.56-.4-3.19.2-5.59,2.59-7.58,5V57c1.39.2,2-1,3.19-1.4,2-.4,3.79-1.19,5.78-1.59,3-.6,5.78-1.4,8.58-1.2a6.64,6.64,0,0,1,2,0c-3.59-.2-6.78,1-10.17,2-2.37.69-4.79.79-7,2A44.91,44.91,0,0,1,89.83,59a22.86,22.86,0,0,1,5,2.4,14.64,14.64,0,0,0,2,1.59,4,4,0,0,0,3.39.2h1c3-.8,6.19-1.59,8.18-3.79,0,.2.2.2.4.2-.6,1.6-.6,3.39-1.8,4.79,0,.2-.2.6.2.8h.4c-.2,0-.4,0-.4.2,0,.39.6,0,.8.39a3.94,3.94,0,0,0-2.59,1.2c0,.2.4.2.6.2-.4.4-1,.2-1.2.6a.7.7,0,0,0,.4.2c-.2,0-.4,0-.4.2v.6c-.6,0-.8.39-1.2.59.8.6,1.4,0,2.2,0-2.2.8-4,2-6.18,2.6-.4,0,0,.59-.4.59.59.4,1-.2,1.59-.2-2.79,1.6-5.58,3-8.57,4.79a1.4,1.4,0,0,0-.4.8H92c-.4.2-.2.8-.6,1.19,1,.6,2.2-.79,2.79,0,.2,0-.39.2-.79.2-.2,0-.2.4-.4.4h-.6c-.4.4-.8.6-.8,1.2-.4,0-.8,0-1,.4,4.39-.6,9-.2,13.16-2.39a30.54,30.54,0,0,0,8.78-6.59.7.7,0,0,1,.2.4,8.72,8.72,0,0,1-3.39,4.59c-1.2.6-2,1.6-3,2l-1.8,1.2c-7.37,2.59-16.15,1.4-22.53,6.38,0-.2-.2-.2-.4-.2-.4.4-1,.6-1.2,1,0,.4.6.2.8.2A12.92,12.92,0,0,1,85,86.15c-1.6.79-3.19,2-4.79,2.39a33.32,33.32,0,0,1-10,0c2-1.2,4-2.59,6.19-3.79a3,3,0,0,0-1.8-.4c-1,.2-2.19-.4-3.19,0-3,1.4-7,1-8.58,4.19-19.94.4-40.08,0-60,0" transform="translate(-1.44 0.36)"/><path class="cls-1" d="M102.79,86.34A37.43,37.43,0,0,0,106.38,85v.4c3-1.2,5.18-3.79,8.17-4.79.2,0,.6.4,1,.2,1.8-1.6,3.79-3.39,6.38-3,0,.2,0,.4.2.4s.4,0,.4-.2l-2.39,1.79c-.2.2,0,.4.2.4,1-.4,1.59-1.19,2.59-1.59-.2.2-.2.59-.4.79A61.17,61.17,0,0,0,113,88.74h-6.18c0-.2,0-.4-.2-.4-7,.6-13.76.4-20.74.4,4-.6,8-1.8,12-2.2A21.28,21.28,0,0,0,102.79,86.34Z" transform="translate(-1.44 0.36)"/><path class="cls-1" d="M181.36,76.17c.48-1.44,1-3,.2-4.38-1.2-1.8,1.2-2.4,2-3.59.6-1-.4-1.6-.6-2.6-.19-.39-1-.19-1.39-.79,1.39-.6,3.59-1.8,2.59-3.59-.6-1-1.59-2.59-.4-3.59,1.4-.8,3.59-.6,4.19-2,1-2.39-1.2-4.38-2.39-6.38a31.5,31.5,0,0,0-2.2-3.19,16.91,16.91,0,0,1-2.19-4.19c-.6-1.59.2-3,.2-4.58.2-3-.6-6-1.4-9-.59-1.39-.79-3-1.39-4.38a6.16,6.16,0,0,0-1-2.4,1.69,1.69,0,0,1,0-1.39,20.27,20.27,0,0,0,2.39-2,2.25,2.25,0,0,0-.79-3c-1.4-.6-1.2,1.4-2.2,1.8h-.6c-.2-.6.2-.8.6-1.2,0-.2,0-.6-.2-.6-.79,0-1.59-.2-1.79-.6-2-2.79-4.79-4.18-7.78-5.38a10,10,0,0,0,2.39.4,7.38,7.38,0,0,0,4.19-.4c1-.4,1.2-2,1.6-3,.4-.8-.2-2-.6-2.6A9.85,9.85,0,0,0,170.59.2h94.53c.19,29.51-.2,59-.4,88.54-37.29.6-74.59,0-111.88,0a19.36,19.36,0,0,1,7-10.37,11.51,11.51,0,0,1,2.79-.8c3.39,0,6.78,1,10.17,1.4a2.82,2.82,0,0,1,1.2.39,8.13,8.13,0,0,0,3.79-.2A4.85,4.85,0,0,0,181.36,76.17Z" transform="translate(-1.44 0.36)"/><path class="cls-1" d="M173.78,36.89a12.82,12.82,0,0,0-3.39,0,28.44,28.44,0,0,0-4.39,1.2,13.92,13.92,0,0,1,3.79-2,16.78,16.78,0,0,1,3-.8c1.2-.2,2.4-.6,3.39-.2s2.6.4,2.8,1c.4,1.2-.6,2.39-1.8,3.19-.2.4.6.6.6,1a1.43,1.43,0,0,1-1.2.6c-.4.2-.79.79-1.19,1.19.4,0,0,.6.4.6-.8,1,.39,3-.8,3.39a8.92,8.92,0,0,1-4.59,0c.8-.2,1.8.2,2.39-.6v-.79c0-.2-.19-.2-.39-.2a.62.62,0,0,1-.4.2.89.89,0,0,0-.6-.8,3.4,3.4,0,0,1-3-1.2,2.79,2.79,0,0,1,1.79-.2c.6,0,.4-1,1-1.39h.6c1.19-1.6,3.59-2,4-3.59C175.78,37.09,174.58,37.09,173.78,36.89Z" transform="translate(-1.44 0.36)"/><polyline class="cls-2" points="263.2 0.76 263.2 88.38 2.11 88.38"/><path class="cls-1" d="M16.44,142.84a3.4,3.4,0,0,1-2.06-.49,11.06,11.06,0,0,1-2.29-3c-.88-1.53-1.87-3.17-2.8-4.55a2,2,0,0,1-.39,0c-.26,0-.47,0-.73,0v1.38c0,.7,0,1.4,0,2.1a7.47,7.47,0,0,0,.26,2.55A1.6,1.6,0,0,0,10,141.9v.73l-.6,0c-.67,0-1.61,0-2.83,0s-2.13,0-2.81,0l-.62,0v-.73a1.64,1.64,0,0,0,1.27-.52A2.37,2.37,0,0,0,5,140a33.69,33.69,0,0,0,.1-3.82v-4.37a19.21,19.21,0,0,0-.28-4.68c-.18-.7-.73-1-1.61-1.09v-.73c.52,0,1,0,1.56,0,1.35,0,1.77,0,3.38-.08,1.4-.06,2.21-.08,2.83-.08a6.06,6.06,0,0,1,3.72.88,4.3,4.3,0,0,1,1.64,3.41c0,2.13-1.41,3.87-3.8,4.76a44.86,44.86,0,0,1,2.68,3.92,19.07,19.07,0,0,0,2.31,3.12,1.88,1.88,0,0,0,1.09.65v.73A9.07,9.07,0,0,1,16.44,142.84ZM9.75,126.56a6.77,6.77,0,0,0-1.55.21c0,1.54,0,4.32,0,6.48a8.21,8.21,0,0,0,1.14.07A3.27,3.27,0,0,0,12.88,130,3.18,3.18,0,0,0,9.75,126.56Z" transform="translate(-1.44 0.36)"/><path class="cls-1" d="M10.64,113.76c-.19.25-.5.34-1.25.34-1,0-2-.07-3.06-.09l-2,0c-.63,0-2.16,0-2.6,0l-.29,0,.08-.44a1.62,1.62,0,0,0,1.3-.65,5.57,5.57,0,0,0,.84-2.17c.27-1.15.4-1.84.83-4l.34-1.65a19.51,19.51,0,0,0,.46-3.18c0-.92-.34-1.29-1.23-1.4l.08-.46a1.74,1.74,0,0,0,.29,0c.77,0,1.53,0,2.3,0,1.21,0,2,0,2.37,0a2.41,2.41,0,0,0,.33,0l-.08.46a1.54,1.54,0,0,0-1.32.63c-.52.67-.82,1.57-1.59,5.6l-.27,1.41c-.34,1.71-.46,2.3-.57,3.07a4.84,4.84,0,0,0-.06.65c0,.81.42,1.07,1.76,1.07,2.36,0,3.24-.49,4-2.2l.57.21A15.16,15.16,0,0,1,10.64,113.76Z" transform="translate(-1.44 0.36)"/><path class="cls-1" d="M78.94,170.17l-4.69-9.47v7.52a2.17,2.17,0,0,0,.24,1.3,1.4,1.4,0,0,0,1.05.35H76v.3H71.75v-.3h.42a1.29,1.29,0,0,0,1.1-.44,2.37,2.37,0,0,0,.19-1.21v-7.35a2.39,2.39,0,0,0-.18-1.08.93.93,0,0,0-.46-.4,2.57,2.57,0,0,0-1.07-.16v-.31h3.43l4.4,8.81,4.33-8.81h3.44v.31h-.42a1.27,1.27,0,0,0-1.1.43,2.34,2.34,0,0,0-.2,1.21v7.35a2.08,2.08,0,0,0,.25,1.3,1.4,1.4,0,0,0,1.05.35h.42v.3H82.2v-.3h.42a1.28,1.28,0,0,0,1.1-.44,2.37,2.37,0,0,0,.19-1.21V160.7l-4.68,9.47Z" transform="translate(-1.44 0.36)"/><path class="cls-1" d="M93.66,169.87v.3h-5.2v-.3h.43a1.36,1.36,0,0,0,1.1-.41,2.42,2.42,0,0,0,.21-1.28v-7.27a3.37,3.37,0,0,0-.12-1.13.78.78,0,0,0-.36-.36,1.87,1.87,0,0,0-.83-.19h-.43v-.31h5.2v.31h-.44a1.34,1.34,0,0,0-1.08.4,2.32,2.32,0,0,0-.22,1.28v7.27a3.77,3.77,0,0,0,.11,1.13.79.79,0,0,0,.38.36,1.8,1.8,0,0,0,.81.2Z" transform="translate(-1.44 0.36)"/><path class="cls-1" d="M94.14,158.92h3.3l7.41,8.44v-6.49a2.12,2.12,0,0,0-.25-1.3,1.39,1.39,0,0,0-1-.34h-.43v-.31h4.23v.31h-.43a1.26,1.26,0,0,0-1.09.43,2.34,2.34,0,0,0-.2,1.21v9.49h-.32l-8-9.07v6.93a2.17,2.17,0,0,0,.24,1.3,1.43,1.43,0,0,0,1,.35H99v.3H94.81v-.3h.42a1.31,1.31,0,0,0,1.11-.44,2.37,2.37,0,0,0,.19-1.21V160.4a5,5,0,0,0-.8-.76,3.28,3.28,0,0,0-.8-.34,3.07,3.07,0,0,0-.79-.07Z" transform="translate(-1.44 0.36)"/><path class="cls-1" d="M113.55,169.87v.3h-5.2v-.3h.43a1.35,1.35,0,0,0,1.09-.41,2.42,2.42,0,0,0,.21-1.28v-7.27a3.45,3.45,0,0,0-.11-1.13.76.76,0,0,0-.37-.36,1.83,1.83,0,0,0-.82-.19h-.43v-.31h5.2v.31h-.44a1.31,1.31,0,0,0-1.08.4,2.29,2.29,0,0,0-.23,1.28v7.27a3.37,3.37,0,0,0,.12,1.13.76.76,0,0,0,.37.36,1.81,1.81,0,0,0,.82.2Z" transform="translate(-1.44 0.36)"/><path class="cls-1" d="M122.67,158.66v3.89h-.33a4.6,4.6,0,0,0-.58-1.78,3,3,0,0,0-1.18-1.06,3.65,3.65,0,0,0-1.6-.38,2.28,2.28,0,0,0-1.54.52,1.56,1.56,0,0,0-.6,1.2,1.35,1.35,0,0,0,.38.94,10,10,0,0,0,2.64,1.66,18,18,0,0,1,2.32,1.3,3.2,3.2,0,0,1,1,1.06,2.7,2.7,0,0,1,.34,1.29,2.85,2.85,0,0,1-1.07,2.21,4.11,4.11,0,0,1-2.76.92,6.24,6.24,0,0,1-1-.07,10.79,10.79,0,0,1-1.15-.31,5.83,5.83,0,0,0-1.1-.26.48.48,0,0,0-.36.13,1,1,0,0,0-.19.51h-.33v-3.86h.33a5.28,5.28,0,0,0,.63,1.81,2.9,2.9,0,0,0,1.2,1,4,4,0,0,0,1.78.39,2.66,2.66,0,0,0,1.76-.54,1.64,1.64,0,0,0,.65-1.3,1.68,1.68,0,0,0-.24-.84,2.72,2.72,0,0,0-.77-.79c-.23-.16-.87-.51-1.9-1.05a17.51,17.51,0,0,1-2.22-1.3,3.56,3.56,0,0,1-1-1.06,2.55,2.55,0,0,1-.34-1.28,2.68,2.68,0,0,1,1-2.08,3.68,3.68,0,0,1,2.55-.88,5.48,5.48,0,0,1,2,.44,2.24,2.24,0,0,0,.71.21.53.53,0,0,0,.38-.13,1,1,0,0,0,.24-.52Z" transform="translate(-1.44 0.36)"/><path class="cls-1" d="M135.34,158.92l.13,2.64h-.34a2.94,2.94,0,0,0-.27-1,1.69,1.69,0,0,0-.74-.71,2.74,2.74,0,0,0-1.21-.23H131.2v8.6a2.17,2.17,0,0,0,.24,1.3,1.43,1.43,0,0,0,1.05.35h.42v.3h-5.14v-.3h.43a1.28,1.28,0,0,0,1.09-.44,2.37,2.37,0,0,0,.19-1.21v-8.6H128a4.24,4.24,0,0,0-1.21.12,1.62,1.62,0,0,0-.8.61,2.28,2.28,0,0,0-.39,1.21h-.34l.14-2.64Z" transform="translate(-1.44 0.36)"/><path class="cls-1" d="M140,159.53V164h2.67a2.31,2.31,0,0,0,1.38-.29,1.76,1.76,0,0,0,.52-1.34h.33v3.91h-.33a3.73,3.73,0,0,0-.25-1,1.1,1.1,0,0,0-.53-.46,2.88,2.88,0,0,0-1.12-.16H140v3.71a3.15,3.15,0,0,0,.07.91.55.55,0,0,0,.25.25,1.52,1.52,0,0,0,.68.1h2.06a5.89,5.89,0,0,0,1.49-.13,2.27,2.27,0,0,0,.9-.53,6.4,6.4,0,0,0,1.14-1.55H147l-1,2.82h-9.35v-.3H137a1.92,1.92,0,0,0,.81-.19.76.76,0,0,0,.39-.4,3.64,3.64,0,0,0,.1-1.09v-7.31c0-.72-.07-1.16-.23-1.32a1.44,1.44,0,0,0-1.07-.33h-.43v-.31h9.35l.13,2.46h-.35a3.65,3.65,0,0,0-.41-1.22,1.41,1.41,0,0,0-.68-.5,4.07,4.07,0,0,0-1.26-.13Zm-.2-4.27h2l.95,2.86h-.32Z" transform="translate(-1.44 0.36)"/><path class="cls-1" d="M160.05,170.17h-3.24l-4.1-5.26-.75,0h-.52v3.27a2.13,2.13,0,0,0,.25,1.32,1.29,1.29,0,0,0,1,.37h.47v.3H148v-.3h.46a1.26,1.26,0,0,0,1.1-.47,2.51,2.51,0,0,0,.19-1.22v-7.27a2.21,2.21,0,0,0-.25-1.32,1.4,1.4,0,0,0-1-.36H148v-.31h4.42a11.51,11.51,0,0,1,2.85.26,3.26,3.26,0,0,1,1.56,1,2.45,2.45,0,0,1,.64,1.68,2.55,2.55,0,0,1-.73,1.8,4.24,4.24,0,0,1-2.26,1.08l2.51,3.22a5.78,5.78,0,0,0,1.47,1.48,3.88,3.88,0,0,0,1.61.47Zm-8.61-5.78h.5a4.17,4.17,0,0,0,2.61-.7,2.18,2.18,0,0,0,.89-1.78,2.21,2.21,0,0,0-.72-1.71,2.65,2.65,0,0,0-1.88-.66,7.94,7.94,0,0,0-1.4.16Z" transform="translate(-1.44 0.36)"/><path class="cls-1" d="M164,159.53V164h2.67a2.37,2.37,0,0,0,1.39-.29,1.8,1.8,0,0,0,.52-1.34h.33v3.91h-.33a4.65,4.65,0,0,0-.25-1,1.15,1.15,0,0,0-.53-.46,2.94,2.94,0,0,0-1.13-.16H164v3.71a3,3,0,0,0,.08.91.51.51,0,0,0,.25.25,1.5,1.5,0,0,0,.68.1h2.05a6,6,0,0,0,1.5-.13,2.24,2.24,0,0,0,.89-.53,6.4,6.4,0,0,0,1.14-1.55h.36l-1.05,2.82h-9.35v-.3H161a1.86,1.86,0,0,0,.81-.19.73.73,0,0,0,.39-.4,3.54,3.54,0,0,0,.11-1.09v-7.31a2.19,2.19,0,0,0-.24-1.32,1.44,1.44,0,0,0-1.07-.33h-.43v-.31h9.35l.13,2.46h-.34a3.85,3.85,0,0,0-.42-1.22,1.37,1.37,0,0,0-.68-.5,4,4,0,0,0-1.26-.13Z" transform="translate(-1.44 0.36)"/><path class="cls-1" d="M176.8,170.17v-.3h.46a1.26,1.26,0,0,0,1.09-.46,2.43,2.43,0,0,0,.2-1.23v-7.27a2.25,2.25,0,0,0-.25-1.32,1.4,1.4,0,0,0-1-.36h-.46v-.31h4.94a11.64,11.64,0,0,1,4.14.57,4.86,4.86,0,0,1,2.28,1.91,5.61,5.61,0,0,1,.86,3.09,5.38,5.38,0,0,1-1.54,3.92c-1.15,1.18-2.9,1.76-5.26,1.76Zm3.46-.81a9.49,9.49,0,0,0,1.91.23,4.7,4.7,0,0,0,3.44-1.35,5.61,5.61,0,0,0,0-7.35,4.81,4.81,0,0,0-3.51-1.34,8.23,8.23,0,0,0-1.84.24Z" transform="translate(-1.44 0.36)"/><path class="cls-1" d="M193.82,159.53V164h2.67a2.34,2.34,0,0,0,1.39-.29,1.8,1.8,0,0,0,.52-1.34h.33v3.91h-.33a4.65,4.65,0,0,0-.25-1,1.15,1.15,0,0,0-.53-.46,2.94,2.94,0,0,0-1.13-.16h-2.67v3.71a3,3,0,0,0,.08.91.51.51,0,0,0,.25.25,1.5,1.5,0,0,0,.68.1h2.06a6,6,0,0,0,1.49-.13,2.24,2.24,0,0,0,.89-.53,6.4,6.4,0,0,0,1.14-1.55h.36l-1.05,2.82h-9.35v-.3h.43a1.86,1.86,0,0,0,.81-.19.69.69,0,0,0,.39-.4,3.54,3.54,0,0,0,.11-1.09v-7.31a2.19,2.19,0,0,0-.24-1.32,1.44,1.44,0,0,0-1.07-.33h-.43v-.31h9.35l.13,2.46h-.34a3.85,3.85,0,0,0-.42-1.22,1.37,1.37,0,0,0-.68-.5,4,4,0,0,0-1.26-.13Z" transform="translate(-1.44 0.36)"/><path class="cls-1" d="M56,190.06l.3.06-1,3h-9.4v-.3h.46a1.26,1.26,0,0,0,1.1-.47,2.44,2.44,0,0,0,.19-1.23v-7.26a2.25,2.25,0,0,0-.25-1.32,1.4,1.4,0,0,0-1-.36h-.46v-.31h5.5v.31a3.47,3.47,0,0,0-1.36.16,1,1,0,0,0-.53.44,3.31,3.31,0,0,0-.14,1.27v7.07a2.11,2.11,0,0,0,.14,1,.63.63,0,0,0,.33.26,6.73,6.73,0,0,0,1.4.08H52a6.83,6.83,0,0,0,2-.19,2.51,2.51,0,0,0,1-.68A5.35,5.35,0,0,0,56,190.06Z" transform="translate(-1.44 0.36)"/><path class="cls-1" d="M57.36,186v-.39a3.85,3.85,0,0,0,1.25-.95,1.2,1.2,0,0,0,.24-.75.64.64,0,0,0-.1-.38.29.29,0,0,0-.23-.13.73.73,0,0,0-.26.06,1.41,1.41,0,0,1-.39.08.93.93,0,0,1-.63-.25.81.81,0,0,1-.28-.63.77.77,0,0,1,.28-.64,1.33,1.33,0,0,1,.89-.32,1.52,1.52,0,0,1,1.08.47,1.56,1.56,0,0,1,.48,1.17,2.5,2.5,0,0,1-.8,1.78A4,4,0,0,1,57.36,186Z" transform="translate(-1.44 0.36)"/><path class="cls-1" d="M65.44,182.53V187H68.1a2.32,2.32,0,0,0,1.39-.29,1.8,1.8,0,0,0,.52-1.34h.33v3.91H70a4.14,4.14,0,0,0-.25-1,1.1,1.1,0,0,0-.53-.46,2.91,2.91,0,0,0-1.13-.16H65.44v3.71a3.15,3.15,0,0,0,.07.91.55.55,0,0,0,.25.25,1.52,1.52,0,0,0,.68.1H68.5a6,6,0,0,0,1.49-.13,2.35,2.35,0,0,0,.9-.53A6.41,6.41,0,0,0,72,190.35h.36l-1,2.82H62v-.3h.43a1.93,1.93,0,0,0,.82-.19.76.76,0,0,0,.39-.4,3.64,3.64,0,0,0,.1-1.09v-7.31a2.3,2.3,0,0,0-.23-1.32,1.48,1.48,0,0,0-1.08-.33H62v-.31h9.35l.14,2.46h-.35a3.85,3.85,0,0,0-.42-1.22,1.34,1.34,0,0,0-.67-.5,4.07,4.07,0,0,0-1.26-.13Z" transform="translate(-1.44 0.36)"/><path class="cls-1" d="M72.83,181.92h3.3l7.41,8.44v-6.49a2.12,2.12,0,0,0-.25-1.3,1.39,1.39,0,0,0-1-.34h-.42v-.31h4.22v.31h-.43a1.26,1.26,0,0,0-1.09.43,2.34,2.34,0,0,0-.2,1.21v9.49H84l-8-9.07v6.93a2.17,2.17,0,0,0,.24,1.3,1.43,1.43,0,0,0,1,.35h.43v.3H73.51v-.3h.42a1.3,1.3,0,0,0,1.1-.44,2.37,2.37,0,0,0,.19-1.21V183.4a5,5,0,0,0-.8-.76,3.28,3.28,0,0,0-.8-.34,3.07,3.07,0,0,0-.79-.07Z" transform="translate(-1.44 0.36)"/><path class="cls-1" d="M99.59,181.92v.31a1.93,1.93,0,0,0-1,.38,3.28,3.28,0,0,0-.84,1.24l-4.24,9.58h-.33l-4.54-9.7a5.55,5.55,0,0,0-.49-.92,1.69,1.69,0,0,0-.55-.4,2.78,2.78,0,0,0-.89-.18v-.31h5v.31a2.25,2.25,0,0,0-1.09.26.58.58,0,0,0-.25.49,3.64,3.64,0,0,0,.41,1.3l3.09,6.59,2.86-6.51a4.14,4.14,0,0,0,.42-1.34.63.63,0,0,0-.26-.46,1.81,1.81,0,0,0-.88-.31l-.15,0v-.31Z" transform="translate(-1.44 0.36)"/><path class="cls-1" d="M105.75,192.87v.3h-5.2v-.3H101a1.35,1.35,0,0,0,1.09-.41,2.42,2.42,0,0,0,.21-1.28v-7.27a3.77,3.77,0,0,0-.11-1.13.81.81,0,0,0-.37-.36,1.83,1.83,0,0,0-.82-.19h-.43v-.31h5.2v.31h-.44a1.35,1.35,0,0,0-1.09.4,2.32,2.32,0,0,0-.22,1.28v7.27a3.37,3.37,0,0,0,.12,1.13.76.76,0,0,0,.37.36,1.81,1.81,0,0,0,.82.2Z" transform="translate(-1.44 0.36)"/><path class="cls-1" d="M118.85,193.17h-3.24l-4.11-5.26-.74,0h-.53v3.27a2.21,2.21,0,0,0,.25,1.32,1.32,1.32,0,0,0,1,.37H112v.3h-5.2v-.3h.46a1.26,1.26,0,0,0,1.1-.47,2.55,2.55,0,0,0,.18-1.22v-7.27a2.13,2.13,0,0,0-.25-1.32,1.36,1.36,0,0,0-1-.36h-.46v-.31h4.42a11.51,11.51,0,0,1,2.85.26,3.26,3.26,0,0,1,1.56,1,2.45,2.45,0,0,1,.64,1.68,2.55,2.55,0,0,1-.73,1.8,4.24,4.24,0,0,1-2.26,1.08l2.5,3.22a5.94,5.94,0,0,0,1.48,1.48,3.88,3.88,0,0,0,1.61.47Zm-8.62-5.78h.5a4.2,4.2,0,0,0,2.62-.7,2.17,2.17,0,0,0,.88-1.78,2.21,2.21,0,0,0-.71-1.71,2.65,2.65,0,0,0-1.88-.66,8,8,0,0,0-1.41.16Z" transform="translate(-1.44 0.36)"/><path class="cls-1" d="M125.66,181.66a5.73,5.73,0,0,1,4.1,1.67,5.52,5.52,0,0,1,1.73,4.15,5.67,5.67,0,0,1-1.75,4.26,6.15,6.15,0,0,1-8.43,0,5.71,5.71,0,0,1-1.7-4.27,5.49,5.49,0,0,1,2-4.38A6.05,6.05,0,0,1,125.66,181.66Zm-.17.61a3.3,3.3,0,0,0-2.61,1.12,6,6,0,0,0-1.22,4.08,6.32,6.32,0,0,0,1.27,4.24,3.21,3.21,0,0,0,2.57,1.13,3.64,3.64,0,0,0,2.83-1.24,5.71,5.71,0,0,0,1.11-3.9,6.42,6.42,0,0,0-1.23-4.3A3.38,3.38,0,0,0,125.49,182.27Z" transform="translate(-1.44 0.36)"/><path class="cls-1" d="M132.23,181.92h3.29l7.42,8.44v-6.49a2.2,2.2,0,0,0-.25-1.3,1.4,1.4,0,0,0-1.05-.34h-.42v-.31h4.22v.31H145a1.28,1.28,0,0,0-1.09.43,2.37,2.37,0,0,0-.19,1.21v9.49h-.33l-8-9.07v6.93a2.17,2.17,0,0,0,.24,1.3,1.39,1.39,0,0,0,1,.35h.43v.3H132.9v-.3h.42a1.28,1.28,0,0,0,1.1-.44,2.34,2.34,0,0,0,.2-1.21V183.4a5,5,0,0,0-.8-.76,3.28,3.28,0,0,0-.8-.34,3.17,3.17,0,0,0-.79-.07Z" transform="translate(-1.44 0.36)"/><path class="cls-1" d="M145.74,181.92H149l7.42,8.44v-6.49a2.2,2.2,0,0,0-.25-1.3,1.4,1.4,0,0,0-1-.34h-.42v-.31H159v.31h-.43a1.28,1.28,0,0,0-1.09.43,2.34,2.34,0,0,0-.2,1.21v9.49h-.32l-8-9.07v6.93a2.17,2.17,0,0,0,.24,1.3,1.43,1.43,0,0,0,1,.35h.43v.3h-4.22v-.3h.42a1.29,1.29,0,0,0,1.1-.44,2.34,2.34,0,0,0,.2-1.21V183.4a4.9,4.9,0,0,0-.81-.76,3.12,3.12,0,0,0-.8-.34,3,3,0,0,0-.78-.07Z" transform="translate(-1.44 0.36)"/><path class="cls-1" d="M163.31,182.53V187H166a2.34,2.34,0,0,0,1.39-.29,1.8,1.8,0,0,0,.52-1.34h.33v3.91h-.33a4.65,4.65,0,0,0-.25-1,1.15,1.15,0,0,0-.53-.46,2.94,2.94,0,0,0-1.13-.16h-2.67v3.71a3,3,0,0,0,.08.91.51.51,0,0,0,.25.25,1.5,1.5,0,0,0,.68.1h2.05a6,6,0,0,0,1.5-.13,2.24,2.24,0,0,0,.89-.53,6.4,6.4,0,0,0,1.14-1.55h.36l-1,2.82h-9.35v-.3h.43a1.86,1.86,0,0,0,.81-.19.69.69,0,0,0,.39-.4,3.54,3.54,0,0,0,.11-1.09v-7.31a2.19,2.19,0,0,0-.24-1.32,1.44,1.44,0,0,0-1.07-.33h-.43v-.31h9.35l.14,2.46H169a3.85,3.85,0,0,0-.42-1.22,1.37,1.37,0,0,0-.68-.5,4,4,0,0,0-1.26-.13Z" transform="translate(-1.44 0.36)"/><path class="cls-1" d="M178.45,193.17l-4.69-9.47v7.52a2.17,2.17,0,0,0,.24,1.3,1.4,1.4,0,0,0,1.05.35h.43v.3h-4.22v-.3h.43a1.28,1.28,0,0,0,1.09-.44,2.34,2.34,0,0,0,.2-1.21v-7.35a2.39,2.39,0,0,0-.18-1.08,1,1,0,0,0-.46-.4,2.66,2.66,0,0,0-1.08-.16v-.31h3.43l4.4,8.81,4.34-8.81h3.43v.31h-.42a1.27,1.27,0,0,0-1.1.43,2.34,2.34,0,0,0-.2,1.21v7.35a2.15,2.15,0,0,0,.25,1.3,1.4,1.4,0,0,0,1.05.35h.42v.3h-5.15v-.3h.43a1.25,1.25,0,0,0,1.09-.44,2.34,2.34,0,0,0,.2-1.21V183.7l-4.68,9.47Z" transform="translate(-1.44 0.36)"/><path class="cls-1" d="M191.35,182.53V187H194a2.31,2.31,0,0,0,1.38-.29,1.76,1.76,0,0,0,.52-1.34h.33v3.91h-.33a4.14,4.14,0,0,0-.25-1,1.1,1.1,0,0,0-.53-.46,2.88,2.88,0,0,0-1.12-.16h-2.67v3.71a3.15,3.15,0,0,0,.07.91.55.55,0,0,0,.25.25,1.52,1.52,0,0,0,.68.1h2.06a5.89,5.89,0,0,0,1.49-.13,2.35,2.35,0,0,0,.9-.53,6.15,6.15,0,0,0,1.13-1.55h.36l-1,2.82H187.9v-.3h.43a1.92,1.92,0,0,0,.81-.19.76.76,0,0,0,.39-.4,3.64,3.64,0,0,0,.1-1.09v-7.31a2.3,2.3,0,0,0-.23-1.32,1.46,1.46,0,0,0-1.07-.33h-.43v-.31h9.35l.13,2.46H197a3.4,3.4,0,0,0-.42-1.22,1.34,1.34,0,0,0-.67-.5,4.07,4.07,0,0,0-1.26-.13Z" transform="translate(-1.44 0.36)"/><path class="cls-1" d="M198.75,181.92H202l7.42,8.44v-6.49a2.1,2.1,0,0,0-.26-1.3,1.37,1.37,0,0,0-1-.34h-.42v-.31H212v.31h-.43a1.26,1.26,0,0,0-1.09.43,2.34,2.34,0,0,0-.2,1.21v9.49h-.32l-8-9.07v6.93a2.17,2.17,0,0,0,.24,1.3,1.43,1.43,0,0,0,1.05.35h.43v.3h-4.22v-.3h.42a1.29,1.29,0,0,0,1.1-.44,2.37,2.37,0,0,0,.19-1.21V183.4a4.56,4.56,0,0,0-.8-.76,3.12,3.12,0,0,0-.8-.34,3,3,0,0,0-.78-.07Z" transform="translate(-1.44 0.36)"/><path class="cls-1" d="M223.1,181.92l.13,2.64h-.34a2.73,2.73,0,0,0-.27-1,1.69,1.69,0,0,0-.74-.71,2.74,2.74,0,0,0-1.21-.23H219v8.6a2.17,2.17,0,0,0,.24,1.3,1.43,1.43,0,0,0,1.05.35h.42v.3h-5.14v-.3H216a1.28,1.28,0,0,0,1.09-.44,2.34,2.34,0,0,0,.2-1.21v-8.6h-1.46a4.24,4.24,0,0,0-1.21.12,1.62,1.62,0,0,0-.8.61,2.28,2.28,0,0,0-.39,1.21h-.34l.14-2.64Z" transform="translate(-1.44 0.36)"/><path class="cls-1" d="M223.59,196v-.37a2.91,2.91,0,0,0,1.42-.88,1.88,1.88,0,0,0,.51-1.25.46.46,0,0,0-.08-.27.17.17,0,0,0-.13-.07,1.35,1.35,0,0,0-.43.16.77.77,0,0,1-.34.08,1,1,0,0,1-.69-.24.85.85,0,0,1-.26-.67.91.91,0,0,1,.33-.7,1.24,1.24,0,0,1,.82-.29,1.43,1.43,0,0,1,1,.48,1.74,1.74,0,0,1,.46,1.27,2.36,2.36,0,0,1-.64,1.59A4.31,4.31,0,0,1,223.59,196Z" transform="translate(-1.44 0.36)"/><path class="cls-1" d="M73.62,216.17v-.3h.46a1.25,1.25,0,0,0,1.09-.46,2.43,2.43,0,0,0,.2-1.23v-7.27a2.17,2.17,0,0,0-.25-1.32,1.38,1.38,0,0,0-1-.36h-.46v-.31h4.94a11.57,11.57,0,0,1,4.14.57A4.76,4.76,0,0,1,85,207.4a5.53,5.53,0,0,1,.87,3.09,5.42,5.42,0,0,1-1.54,3.92c-1.15,1.18-2.91,1.76-5.26,1.76Zm3.47-.81a9.32,9.32,0,0,0,1.9.23,4.72,4.72,0,0,0,3.45-1.35,5.61,5.61,0,0,0,0-7.35,4.85,4.85,0,0,0-3.52-1.34,8.08,8.08,0,0,0-1.83.24Z" transform="translate(-1.44 0.36)"/><path class="cls-1" d="M90.65,205.53V210h2.66a2.32,2.32,0,0,0,1.39-.29,1.8,1.8,0,0,0,.52-1.34h.33v3.91h-.33a4.14,4.14,0,0,0-.25-1,1.1,1.1,0,0,0-.53-.46,2.91,2.91,0,0,0-1.13-.16H90.65v3.71a3.15,3.15,0,0,0,.07.91.55.55,0,0,0,.25.25,1.52,1.52,0,0,0,.68.1h2.06a6,6,0,0,0,1.49-.13,2.35,2.35,0,0,0,.9-.53,6.41,6.41,0,0,0,1.13-1.55h.36l-1,2.82H87.19v-.3h.43a1.93,1.93,0,0,0,.82-.19.76.76,0,0,0,.39-.4,3.64,3.64,0,0,0,.1-1.09v-7.31a2.3,2.3,0,0,0-.23-1.32,1.48,1.48,0,0,0-1.08-.33h-.43v-.31h9.35l.14,2.46h-.35a3.85,3.85,0,0,0-.42-1.22,1.34,1.34,0,0,0-.67-.5,4.07,4.07,0,0,0-1.26-.13Z" transform="translate(-1.44 0.36)"/><path class="cls-1" d="M113.65,213.06l.29.06-1,3h-9.39v-.3H104a1.25,1.25,0,0,0,1.1-.47,2.44,2.44,0,0,0,.19-1.23v-7.26a2.17,2.17,0,0,0-.25-1.32,1.38,1.38,0,0,0-1-.36h-.45v-.31H109v.31a3.44,3.44,0,0,0-1.35.16,1.11,1.11,0,0,0-.54.44,3.53,3.53,0,0,0-.14,1.27v7.07a2.26,2.26,0,0,0,.14,1,.71.71,0,0,0,.33.26,6.8,6.8,0,0,0,1.4.08h.89a6.83,6.83,0,0,0,2-.19,2.54,2.54,0,0,0,1-.68A5.58,5.58,0,0,0,113.65,213.06Z" transform="translate(-1.44 0.36)"/><path class="cls-1" d="M115.06,209v-.39a4,4,0,0,0,1.25-.95,1.26,1.26,0,0,0,.23-.75.58.58,0,0,0-.1-.38.29.29,0,0,0-.23-.13.78.78,0,0,0-.26.06,1.29,1.29,0,0,1-.38.08,1,1,0,0,1-.64-.25.84.84,0,0,1-.28-.63.8.8,0,0,1,.28-.64,1.36,1.36,0,0,1,.9-.32,1.5,1.5,0,0,1,1.07.47,1.56,1.56,0,0,1,.48,1.17,2.48,2.48,0,0,1-.79,1.78A4.11,4.11,0,0,1,115.06,209Z" transform="translate(-1.44 0.36)"/><path class="cls-1" d="M123.13,205.53V210h2.67a2.37,2.37,0,0,0,1.39-.29,1.76,1.76,0,0,0,.51-1.34H128v3.91h-.34a3.73,3.73,0,0,0-.25-1,1.08,1.08,0,0,0-.52-.46,2.94,2.94,0,0,0-1.13-.16h-2.67v3.71a3.59,3.59,0,0,0,.07.91.6.6,0,0,0,.25.25,1.52,1.52,0,0,0,.68.1h2.06a6,6,0,0,0,1.5-.13,2.31,2.31,0,0,0,.89-.53,6.4,6.4,0,0,0,1.14-1.55h.36L129,216.17h-9.35v-.3h.43a1.86,1.86,0,0,0,.81-.19.76.76,0,0,0,.39-.4,3.54,3.54,0,0,0,.11-1.09v-7.31a2.19,2.19,0,0,0-.24-1.32,1.44,1.44,0,0,0-1.07-.33h-.43v-.31H129l.13,2.46h-.35a3.65,3.65,0,0,0-.41-1.22,1.37,1.37,0,0,0-.68-.5,4.07,4.07,0,0,0-1.26-.13Zm3.81-4.27-2.64,2.86H124l.94-2.86Z" transform="translate(-1.44 0.36)"/><path class="cls-1" d="M130.53,204.92h3.29l7.42,8.44v-6.49a2.2,2.2,0,0,0-.25-1.3,1.4,1.4,0,0,0-1.05-.34h-.42v-.31h4.22v.31h-.43a1.28,1.28,0,0,0-1.09.43,2.37,2.37,0,0,0-.19,1.21v9.49h-.33l-8-9.07v6.93a2.17,2.17,0,0,0,.24,1.3,1.39,1.39,0,0,0,1,.35h.43v.3H131.2v-.3h.42a1.28,1.28,0,0,0,1.1-.44,2.34,2.34,0,0,0,.2-1.21V206.4a5,5,0,0,0-.8-.76,3.28,3.28,0,0,0-.8-.34,3.17,3.17,0,0,0-.79-.07Z" transform="translate(-1.44 0.36)"/><path class="cls-1" d="M148.11,205.53V210h2.66a2.32,2.32,0,0,0,1.39-.29,1.8,1.8,0,0,0,.52-1.34H153v3.91h-.33a4.14,4.14,0,0,0-.25-1,1.1,1.1,0,0,0-.53-.46,2.91,2.91,0,0,0-1.13-.16h-2.66v3.71a3.15,3.15,0,0,0,.07.91.55.55,0,0,0,.25.25,1.5,1.5,0,0,0,.68.1h2.06a6,6,0,0,0,1.49-.13,2.35,2.35,0,0,0,.9-.53,6.41,6.41,0,0,0,1.13-1.55h.36L154,216.17h-9.35v-.3h.43a1.93,1.93,0,0,0,.82-.19.76.76,0,0,0,.39-.4,4,4,0,0,0,.1-1.09v-7.31a2.3,2.3,0,0,0-.23-1.32,1.48,1.48,0,0,0-1.08-.33h-.43v-.31H154l.14,2.46h-.35a3.85,3.85,0,0,0-.42-1.22,1.34,1.34,0,0,0-.67-.5,4.07,4.07,0,0,0-1.26-.13Z" transform="translate(-1.44 0.36)"/><path class="cls-1" d="M168.13,216.17h-3.24l-4.11-5.26-.74,0h-.53v3.27a2.21,2.21,0,0,0,.25,1.32,1.32,1.32,0,0,0,1,.37h.48v.3h-5.2v-.3h.46a1.26,1.26,0,0,0,1.1-.47,2.55,2.55,0,0,0,.18-1.22v-7.27a2.13,2.13,0,0,0-.25-1.32,1.37,1.37,0,0,0-1-.36h-.46v-.31h4.42a11.51,11.51,0,0,1,2.85.26,3.26,3.26,0,0,1,1.56,1,2.44,2.44,0,0,1,.63,1.68,2.54,2.54,0,0,1-.72,1.8,4.24,4.24,0,0,1-2.26,1.08l2.5,3.22a5.78,5.78,0,0,0,1.48,1.48,3.88,3.88,0,0,0,1.61.47Zm-8.62-5.78h.5a4.2,4.2,0,0,0,2.62-.7,2.17,2.17,0,0,0,.88-1.78,2.24,2.24,0,0,0-.71-1.71,2.65,2.65,0,0,0-1.88-.66,8,8,0,0,0-1.41.16Z" transform="translate(-1.44 0.36)"/><path class="cls-1" d="M179.49,204.66l.31,3.55h-.31a4.89,4.89,0,0,0-1.23-2,4.5,4.5,0,0,0-6.31.73,5.83,5.83,0,0,0-1,3.42,6.49,6.49,0,0,0,.67,2.94,4.43,4.43,0,0,0,4,2.57,5.58,5.58,0,0,0,1.3-.16,5.42,5.42,0,0,0,1.21-.47V212a2.89,2.89,0,0,0-.14-1.11.93.93,0,0,0-.43-.4,2.68,2.68,0,0,0-1-.13V210h4.7v.32H181a1,1,0,0,0-1,.43,2.7,2.7,0,0,0-.18,1.21v3.44a9,9,0,0,1-2,.76,9.5,9.5,0,0,1-2.22.24,6.7,6.7,0,0,1-5.34-2.09,5.31,5.31,0,0,1-1.37-3.62,5.65,5.65,0,0,1,.77-2.85,6.24,6.24,0,0,1,2.5-2.49,6.54,6.54,0,0,1,3.15-.72,6.33,6.33,0,0,1,1.2.1,11.7,11.7,0,0,1,1.54.44,2.32,2.32,0,0,0,.67.17.35.35,0,0,0,.29-.14,1.09,1.09,0,0,0,.15-.57Z" transform="translate(-1.44 0.36)"/><path class="cls-1" d="M187.4,215.87v.3h-5.19v-.3h.43a1.35,1.35,0,0,0,1.09-.41,2.42,2.42,0,0,0,.21-1.28v-7.27a3.37,3.37,0,0,0-.12-1.13.74.74,0,0,0-.36-.36,1.83,1.83,0,0,0-.82-.19h-.43v-.31h5.19v.31H187a1.35,1.35,0,0,0-1.09.4,2.32,2.32,0,0,0-.22,1.28v7.27a3.77,3.77,0,0,0,.11,1.13.79.79,0,0,0,.38.36,1.81,1.81,0,0,0,.82.2Z" transform="translate(-1.44 0.36)"/><path class="cls-1" d="M192,205.53V210h2.66a2.34,2.34,0,0,0,1.39-.29,1.8,1.8,0,0,0,.52-1.34h.33v3.91h-.33a4.65,4.65,0,0,0-.25-1,1.15,1.15,0,0,0-.53-.46,2.94,2.94,0,0,0-1.13-.16H192v3.71a3.15,3.15,0,0,0,.07.91.51.51,0,0,0,.25.25,1.5,1.5,0,0,0,.68.1H195a6,6,0,0,0,1.49-.13,2.24,2.24,0,0,0,.89-.53,6.4,6.4,0,0,0,1.14-1.55h.36l-1.05,2.82H188.5v-.3h.43a1.93,1.93,0,0,0,.82-.19.71.71,0,0,0,.38-.4,3.54,3.54,0,0,0,.11-1.09v-7.31a2.19,2.19,0,0,0-.24-1.32,1.44,1.44,0,0,0-1.07-.33h-.43v-.31h9.35l.14,2.46h-.35a3.85,3.85,0,0,0-.42-1.22,1.39,1.39,0,0,0-.67-.5,4.11,4.11,0,0,0-1.27-.13Z" transform="translate(-1.44 0.36)"/><path class="cls-1" d="M77,228.53V233h2.67a2.31,2.31,0,0,0,1.38-.29,1.76,1.76,0,0,0,.52-1.34h.33v3.91h-.33a3.73,3.73,0,0,0-.25-1,1.06,1.06,0,0,0-.53-.46,2.88,2.88,0,0,0-1.12-.16H77v3.71a3.15,3.15,0,0,0,.07.91.55.55,0,0,0,.25.25,1.52,1.52,0,0,0,.68.1H80a6,6,0,0,0,1.5-.13,2.31,2.31,0,0,0,.89-.53,6.4,6.4,0,0,0,1.14-1.55h.35l-1,2.82H73.51v-.3h.43a1.89,1.89,0,0,0,.81-.19.76.76,0,0,0,.39-.4,3.64,3.64,0,0,0,.1-1.09v-7.31c0-.72-.07-1.16-.23-1.32a1.44,1.44,0,0,0-1.07-.33h-.43v-.31h9.35l.13,2.46h-.35a3.65,3.65,0,0,0-.41-1.22,1.41,1.41,0,0,0-.68-.5,4.07,4.07,0,0,0-1.26-.13Z" transform="translate(-1.44 0.36)"/><path class="cls-1" d="M95.2,227.92l.14,2.64H95a3.2,3.2,0,0,0-.27-1,1.74,1.74,0,0,0-.74-.71,2.77,2.77,0,0,0-1.21-.23H91.07v8.6a2.17,2.17,0,0,0,.24,1.3,1.43,1.43,0,0,0,1,.35h.42v.3H87.63v-.3h.43a1.27,1.27,0,0,0,1.09-.44,2.34,2.34,0,0,0,.2-1.21v-8.6H87.89a4.29,4.29,0,0,0-1.21.12,1.59,1.59,0,0,0-.79.61,2.37,2.37,0,0,0-.4,1.21h-.34l.15-2.64Z" transform="translate(-1.44 0.36)"/><path class="cls-1" d="M100.9,239.17v-.3h.46a1.25,1.25,0,0,0,1.09-.46,2.43,2.43,0,0,0,.2-1.23v-7.27a2.17,2.17,0,0,0-.25-1.32,1.38,1.38,0,0,0-1-.36h-.46v-.31h4.94a11.57,11.57,0,0,1,4.14.57,4.76,4.76,0,0,1,2.28,1.91,5.53,5.53,0,0,1,.87,3.09,5.42,5.42,0,0,1-1.54,3.92c-1.15,1.18-2.91,1.76-5.26,1.76Zm3.47-.81a9.32,9.32,0,0,0,1.9.23,4.72,4.72,0,0,0,3.45-1.35,5.61,5.61,0,0,0,0-7.35,4.85,4.85,0,0,0-3.52-1.34,8.08,8.08,0,0,0-1.83.24Z" transform="translate(-1.44 0.36)"/><path class="cls-1" d="M117.93,228.53V233h2.66a2.32,2.32,0,0,0,1.39-.29,1.8,1.8,0,0,0,.52-1.34h.33v3.91h-.33a4.14,4.14,0,0,0-.25-1,1.1,1.1,0,0,0-.53-.46,2.91,2.91,0,0,0-1.13-.16h-2.66v3.71a3.15,3.15,0,0,0,.07.91.55.55,0,0,0,.25.25,1.52,1.52,0,0,0,.68.1H121a6,6,0,0,0,1.49-.13,2.35,2.35,0,0,0,.9-.53,6.15,6.15,0,0,0,1.13-1.55h.36l-1.05,2.82h-9.35v-.3h.43a1.93,1.93,0,0,0,.82-.19.76.76,0,0,0,.39-.4,3.64,3.64,0,0,0,.1-1.09v-7.31a2.3,2.3,0,0,0-.23-1.32,1.47,1.47,0,0,0-1.08-.33h-.43v-.31h9.35l.14,2.46h-.35a3.61,3.61,0,0,0-.42-1.22,1.34,1.34,0,0,0-.67-.5,4.07,4.07,0,0,0-1.26-.13Z" transform="translate(-1.44 0.36)"/><path class="cls-1" d="M140.93,236.06l.29.06-1,3h-9.39v-.3h.46a1.26,1.26,0,0,0,1.1-.47,2.6,2.6,0,0,0,.18-1.23v-7.26a2.17,2.17,0,0,0-.25-1.32,1.37,1.37,0,0,0-1-.36h-.46v-.31h5.49v.31a3.44,3.44,0,0,0-1.35.16,1.11,1.11,0,0,0-.54.44,3.53,3.53,0,0,0-.14,1.27v7.07a2.26,2.26,0,0,0,.14,1,.69.69,0,0,0,.34.26,6.6,6.6,0,0,0,1.39.08H137a6.83,6.83,0,0,0,2-.19,2.57,2.57,0,0,0,1-.68A5.35,5.35,0,0,0,140.93,236.06Z" transform="translate(-1.44 0.36)"/><path class="cls-1" d="M150.27,235.41h-4.69l-.83,1.77a2.73,2.73,0,0,0-.3,1,.57.57,0,0,0,.26.45,2.47,2.47,0,0,0,1.14.26v.3H142v-.3a2.16,2.16,0,0,0,1-.33,5,5,0,0,0,1-1.62l4.27-9.26h.31l4.22,9.36a4.2,4.2,0,0,0,.93,1.47,2,2,0,0,0,1.16.38v.3h-4.79v-.3a2,2,0,0,0,1-.23.55.55,0,0,0,.25-.46A3.39,3.39,0,0,0,151,237Zm-.25-.62L148,230.24l-2.11,4.55Z" transform="translate(-1.44 0.36)"/><path class="cls-1" d="M166.74,239.17l-4.69-9.47v7.52a2.17,2.17,0,0,0,.24,1.3,1.4,1.4,0,0,0,1.05.35h.43v.3h-4.22v-.3H160a1.28,1.28,0,0,0,1.09-.44,2.37,2.37,0,0,0,.19-1.21v-7.35a2.39,2.39,0,0,0-.18-1.08.93.93,0,0,0-.46-.4,2.57,2.57,0,0,0-1.07-.16v-.31H163l4.4,8.81,4.33-8.81h3.44v.31h-.42a1.27,1.27,0,0,0-1.1.43,2.34,2.34,0,0,0-.2,1.21v7.35a2.08,2.08,0,0,0,.25,1.3,1.4,1.4,0,0,0,1,.35h.42v.3H170v-.3h.43a1.27,1.27,0,0,0,1.09-.44,2.37,2.37,0,0,0,.19-1.21V229.7L167,239.17Z" transform="translate(-1.44 0.36)"/><path class="cls-1" d="M179.64,228.53V233h2.66a2.32,2.32,0,0,0,1.39-.29,1.8,1.8,0,0,0,.52-1.34h.33v3.91h-.33a4.14,4.14,0,0,0-.25-1,1.1,1.1,0,0,0-.53-.46,2.91,2.91,0,0,0-1.13-.16h-2.66v3.71a3.15,3.15,0,0,0,.07.91.55.55,0,0,0,.25.25,1.52,1.52,0,0,0,.68.1h2.06a6,6,0,0,0,1.49-.13,2.35,2.35,0,0,0,.9-.53,6.41,6.41,0,0,0,1.13-1.55h.36l-1.05,2.82h-9.35v-.3h.43a1.93,1.93,0,0,0,.82-.19.76.76,0,0,0,.39-.4,3.64,3.64,0,0,0,.1-1.09v-7.31a2.3,2.3,0,0,0-.23-1.32,1.48,1.48,0,0,0-1.08-.33h-.43v-.31h9.35l.14,2.46h-.35a3.61,3.61,0,0,0-.42-1.22,1.34,1.34,0,0,0-.67-.5,4.07,4.07,0,0,0-1.26-.13Z" transform="translate(-1.44 0.36)"/><path class="cls-1" d="M199.66,239.17h-3.24l-4.11-5.26-.74,0H191v3.27a2.21,2.21,0,0,0,.25,1.32,1.32,1.32,0,0,0,1,.37h.48v.3h-5.2v-.3h.46a1.26,1.26,0,0,0,1.1-.47,2.55,2.55,0,0,0,.18-1.22v-7.27a2.13,2.13,0,0,0-.25-1.32,1.37,1.37,0,0,0-1-.36h-.46v-.31H192a11.51,11.51,0,0,1,2.85.26,3.26,3.26,0,0,1,1.56,1,2.45,2.45,0,0,1,.64,1.68,2.55,2.55,0,0,1-.73,1.8,4.24,4.24,0,0,1-2.26,1.08l2.5,3.22a5.78,5.78,0,0,0,1.48,1.48,3.88,3.88,0,0,0,1.61.47ZM191,233.39h.5a4.2,4.2,0,0,0,2.62-.7,2.17,2.17,0,0,0,.88-1.78,2.21,2.21,0,0,0-.71-1.71,2.65,2.65,0,0,0-1.88-.66,8,8,0,0,0-1.41.16Z" transform="translate(-1.44 0.36)"/></svg>