<?xml version="1.0" encoding="utf-8"?>
<!-- Generator: Adobe Illustrator 22.0.1, SVG Export Plug-In . SVG Version: 6.00 Build 0)  -->
<svg version="1.1" xmlns="http://www.w3.org/2000/svg" xmlns:xlink="http://www.w3.org/1999/xlink" x="0px" y="0px"
	 viewBox="0 0 400 198.4" style="enable-background:new 0 0 400 198.4;" xml:space="preserve">
<style type="text/css">
	.st0{display:none;fill:#020304;}
	.st1{display:none;fill:#FFFFFF;stroke:#384859;stroke-width:1.1042;}
	.st2{display:none;fill:#FFFFFF;}
	.st3{fill:#FFFFFF;}
	.st4{display:none;}
	.st5{display:none;clip-path:url(#SVGID_2_);fill:#FFFFFF;}
	.st6{clip-path:url(#SVGID_2_);fill:#FFFFFF;}
	.st7{fill:none;stroke:#000000;stroke-width:1.2319;}
	.st8{fill:none;stroke:#000000;stroke-width:1.1534;}
</style>
<g id="Calque_1">
	<rect x="13.2" y="-265.7" class="st0" width="369.6" height="633.9"/>
	<polygon class="st1" points="345.5,270 55.8,270 55.1,-232.9 344.9,-232.9 	"/>
	<rect x="64.2" y="-217.8" class="st2" width="271.6" height="159.7"/>
	<path class="st3" d="M84.1,167.7c-1,0-1.5-0.1-2.1-0.5c-0.9-0.6-1.8-2.1-2.3-3c-0.9-1.5-1.9-3.2-2.8-4.5c-0.2,0-0.3,0-0.4,0
		c-0.3,0-0.5,0-0.7,0v1.4c0,0.7,0,1.4,0,2.1c0,1.4,0.1,2,0.3,2.5c0.3,0.7,0.7,1,1.6,1.1v0.7l-0.6,0c-0.7,0-1.6,0-2.8,0
		c-1.2,0-2.1,0-2.8,0l-0.6,0v-0.7c0.6-0.1,1-0.2,1.3-0.5c0.3-0.3,0.5-0.8,0.5-1.4c0.1-0.8,0.1-1.2,0.1-3.8v-4.4c0-3.2-0.1-4-0.3-4.7
		c-0.2-0.7-0.7-1-1.6-1.1v-0.7c0.5,0.1,1,0,1.6,0c1.4,0,1.8,0,3.4-0.1c1.4-0.1,2.2-0.1,2.8-0.1c1.8,0,2.8,0.3,3.7,0.9
		c1,0.7,1.6,2.1,1.6,3.4c0,2.1-1.4,3.9-3.8,4.8c1,1.2,1.8,2.5,2.7,3.9c0.8,1.3,1.7,2.5,2.3,3.1c0.4,0.4,0.6,0.5,1.1,0.6v0.7
		C85.5,167.6,84.9,167.7,84.1,167.7z M77.4,151.4c-0.5,0-1,0.1-1.6,0.2c0,1.5,0,4.3,0,6.5c0.3,0.1,0.8,0.1,1.1,0.1
		c2.1,0,3.6-1.3,3.6-3.4C80.5,152.8,79.2,151.4,77.4,151.4z"/>
	<path class="st3" d="M92.6,151.7l-1-0.6l2.1-3.1l2.5,0.5L92.6,151.7z M97.4,167.1c-0.2,0.3-0.4,0.4-1.6,0.4c-0.7,0-1.4,0-2.2-0.1
		c-1,0-2.1-0.1-3.1-0.1c-1,0-2.1,0-3.1,0.1v-0.6c1-0.1,1.4-0.6,1.5-1.6c0.1-0.6,0.1-1.3,0.1-2.4v-6.1c0-1.1-0.1-1.7-0.2-2.1
		c-0.2-0.6-0.6-0.8-1.3-0.9v-0.6h10.1c0,0.6,0,1.3,0,1.9c0,0.5,0,1,0,1.5h-0.8c-0.2-1.7-0.9-2.1-3.4-2.1c-0.5,0-1.1,0-1.6,0
		c0,0.8-0.1,1.1-0.1,2.4v2.5c0.3,0,0.6,0,1,0c2.2,0,2.9-0.3,3.1-1.5h0.8c0,0.3,0,1.1,0,2.1c0,1.1,0,1.7,0,2.1h-0.8
		c-0.1-1.2-0.6-1.5-2.9-1.5c-0.4,0-0.8,0-1.2,0c0,1.4,0,2.7,0,4.1c0,0.9,0.2,1.2,0.7,1.3c0.3,0.1,0.8,0.1,1.5,0.1
		c2.3,0,3.1-0.5,3.6-2.3l0.8,0.2C98,165.5,97.6,166.7,97.4,167.1z"/>
	<path class="st3" d="M106.3,161.1c-0.2,0-0.3,0-0.6,0l-0.5-1.1c2-0.1,3.1-1.1,3.1-2.8c0-1.7-1.2-2.9-2.8-2.9c-0.3,0-0.5,0-0.8,0.1
		c0,1.3,0,2.7,0,4v3.8c0,2.8,0,3.3,0.2,3.8c0.2,0.6,0.6,0.8,1.3,0.9v0.6l-0.5,0c-0.6,0-1.3,0-2.4,0c-1,0-1.8,0-2.3,0l-0.5,0v-0.6
		c1-0.1,1.4-0.6,1.5-1.6c0.1-0.6,0.1-1,0.1-3.2v-5.4c0-1.1-0.1-1.7-0.2-2.1c-0.2-0.6-0.6-0.8-1.3-0.9v-0.6c0.3,0,0.1,0,1,0
		c0.4,0,0.9,0,1.6,0c1.1,0,2.2-0.1,3.3-0.1c3,0,4.9,1.5,4.9,4C111.3,159.3,109.2,161.1,106.3,161.1z"/>
	<path class="st3" d="M125.9,154.2c-0.2,0.3-0.3,0.8-0.4,1.6c0,0.9-0.1,1.6-0.1,3c0,0.5,0,2,0,3.5c0,1.5-0.2,2.4-0.9,3.3
		c-1,1.4-2.6,2.2-4.8,2.2c-1.4,0-2.4-0.3-3.4-0.9c-1.5-1-2.1-2.2-2.1-4.5c0-2.3,0-3.3,0-4.1c0-1.1,0.1-2.2-0.1-3.3
		c-0.1-0.8-0.5-1.1-1.4-1.2v-0.6l0.5,0c0.6,0,1.4,0,2.4,0c1,0,1.8,0,2.4,0l0.5,0v0.6c-0.7,0.1-1,0.3-1.2,0.6
		c-0.2,0.3-0.3,0.8-0.3,1.7c0,1.4-0.1,2.7-0.1,4c0,3.7,0.1,4.4,0.8,5.2c0.5,0.6,1.4,1,2.4,1c1.4,0,2.8-0.7,3.3-2.2
		c0.3-0.9,0.3-1.6,0.3-4V158c0-2.4-0.1-3.2-0.3-3.6c-0.2-0.4-0.6-0.6-1.1-0.7v-0.6c0.9,0,1.2,0,2.2,0c1.1,0,1.4,0,2.3,0v0.6
		C126.4,153.8,126.1,153.9,125.9,154.2z"/>
	<path class="st3" d="M139.1,166.4c-1,0.8-2.1,1-4.3,1c-1.2,0-2.3-0.1-3.5-0.1c-0.5,0-1.4,0-2,0l-0.3,0v-0.6c1-0.1,1.4-0.6,1.5-1.6
		c0.1-0.6,0.1-1,0.1-3.2V158c0-2,0-2.9-0.2-3.4c-0.2-0.6-0.6-0.8-1.3-0.9v-0.6c1,0,1.6,0,2.9,0c1.2,0,3.1-0.1,4.4-0.1
		c2,0,3.8,0.9,3.8,3.2c0,1.7-1,2.8-3.1,3.3c2.3,0.5,3.5,1.8,3.5,3.9C140.5,164.7,140,165.7,139.1,166.4z M134.4,154.2
		c-0.4,0-0.8,0-1.2,0c0,1.4-0.1,3.8-0.1,4.7c0.2,0,0.5,0,0.9,0c2.1,0,3.3-0.9,3.3-2.4C137.4,155.1,136.3,154.2,134.4,154.2z
		 M134.5,160.2c-0.4,0-0.8,0-1.3,0.1c0,0.6,0,0.7,0,1.7v1.3c0,1.2,0,1.8,0.2,2.3c0.2,0.5,0.7,0.8,1.6,0.8c1.8,0,2.9-1,2.9-2.8
		C137.8,161.5,136.5,160.2,134.5,160.2z"/>
	<path class="st3" d="M152.6,167.1c-0.2,0.3-0.5,0.4-1.5,0.4c-0.5,0-1.1,0-1.6,0c-1.3,0-2.5-0.1-4-0.1c-1.1,0-1.8,0-2.5,0.1v-0.6
		c0.5,0,0.8-0.1,1.1-0.4c0.4-0.5,0.5-1,0.5-2.6c0-1.1,0-1.9,0-3.1v-2.3c0-2.9,0-3.3-0.2-3.9c-0.2-0.6-0.6-0.8-1.3-0.9v-0.6l0.5,0
		c0.6,0,1.4,0,2.4,0c1.1,0,1.9,0,2.4,0l0.5,0v0.6c-1.1,0-1.6,0.6-1.7,1.6c0,0.4-0.1,0.7-0.1,3.2v3.6c0,3,0,3.4,0.3,3.7
		c0.2,0.2,0.7,0.3,1.6,0.3c1.2,0,1.8-0.1,2.4-0.4c0.6-0.3,1.1-1,1.3-1.9l0.8,0.2C153.3,165.2,152.9,166.8,152.6,167.1z"/>
	<path class="st3" d="M160.1,167.4c-0.5,0-1.3,0-2.3,0c-1,0-1.8,0-2.4,0l-0.5,0v-0.6c1-0.1,1.4-0.6,1.5-1.6c0.1-0.6,0.1-1,0.1-3.2
		v-3.6c0-0.6,0-1.1,0-1.8c0-1.1,0-1.7-0.2-2.1c-0.2-0.6-0.6-0.8-1.3-0.9v-0.6l0.5,0c0.6,0,1.3,0,2.4,0c1,0,1.8,0,2.3,0l0.5,0v0.6
		c-0.9,0.1-1.4,0.6-1.5,1.6c-0.1,0.6-0.1,1.2-0.1,3.2v3.6c0,2.8,0,3.3,0.2,3.8c0.2,0.6,0.6,0.8,1.3,0.9v0.6L160.1,167.4z"/>
	<path class="st3" d="M180.2,171.3c-1.7,0-3.5-0.5-5.2-1.5c-1-0.5-2.3-1.5-3.3-2.3c-0.7,0.1-1,0.1-1.7,0.1c-4.3,0-7.2-2.8-7.2-7.1
		c0-4.6,3.1-7.7,7.7-7.7c4.4,0,7.4,2.8,7.4,7.1c0,3-1.5,5.7-4,7c0.8,0.4,1.5,0.8,2.3,1.3c2.2,1.3,3.7,1.9,5.1,1.9
		c0.9,0,1.6-0.2,2.5-0.6l0.3,0.8C183,170.9,181.7,171.3,180.2,171.3z M170.1,154.3c-2.6,0-4.5,2.2-4.5,5.3c0,3.7,2.2,6.7,5,6.7
		c2.6,0,4.5-2.2,4.5-5.3C175.1,157.2,172.9,154.3,170.1,154.3z"/>
	<path class="st3" d="M192.7,154.2c-0.2,0.3-0.3,0.8-0.4,1.6c0,0.9-0.1,1.6-0.1,3c0,0.5,0,2,0,3.5c0,1.5-0.2,2.4-0.9,3.3
		c-1,1.4-2.6,2.2-4.8,2.2c-1.4,0-2.4-0.3-3.4-0.9c-1.5-1-2.1-2.2-2.1-4.5c0-2.3,0-3.3,0-4.1c0-1.1,0.1-2.2-0.1-3.3
		c-0.1-0.8-0.5-1.1-1.4-1.2v-0.6l0.5,0c0.6,0,1.4,0,2.4,0c1,0,1.8,0,2.4,0l0.5,0v0.6c-0.7,0.1-1,0.3-1.2,0.6
		c-0.2,0.3-0.3,0.8-0.3,1.7c0,1.4-0.1,2.7-0.1,4c0,3.7,0.1,4.4,0.8,5.2c0.5,0.6,1.4,1,2.4,1c1.4,0,2.8-0.7,3.3-2.2
		c0.3-0.9,0.3-1.6,0.3-4V158c0-2.4-0.1-3.2-0.3-3.6c-0.2-0.4-0.6-0.6-1.1-0.7v-0.6c0.9,0,1.2,0,2.2,0c1.1,0,1.4,0,2.3,0v0.6
		C193.3,153.8,193,153.9,192.7,154.2z"/>
	<path class="st3" d="M205.8,167.1c-0.2,0.3-0.4,0.4-1.6,0.4c-0.7,0-1.4,0-2.2-0.1c-1,0-2.1-0.1-3.1-0.1c-1,0-2.1,0-3.1,0.1v-0.6
		c1-0.1,1.4-0.6,1.5-1.6c0.1-0.6,0.1-1.3,0.1-2.4v-6.1c0-1.1-0.1-1.7-0.2-2.1c-0.2-0.6-0.6-0.8-1.3-0.9v-0.6H206c0,0.6,0,1.3,0,1.9
		c0,0.5,0,1,0,1.5h-0.8c-0.2-1.7-0.9-2.1-3.4-2.1c-0.5,0-1.1,0-1.6,0c0,0.8-0.1,1.1-0.1,2.4v2.5c0.3,0,0.6,0,1,0
		c2.2,0,2.9-0.3,3.1-1.5h0.8c0,0.3,0,1.1,0,2.1c0,1.1,0,1.7,0,2.1h-0.8c-0.1-1.2-0.6-1.5-2.9-1.5c-0.4,0-0.8,0-1.2,0
		c0,1.4,0,2.7,0,4.1c0,0.9,0.2,1.2,0.7,1.3c0.3,0.1,0.8,0.1,1.5,0.1c2.3,0,3.1-0.5,3.6-2.3l0.8,0.2
		C206.4,165.5,206.1,166.7,205.8,167.1z"/>
	<path class="st3" d="M225.7,154.3c0-1.9-1.1-2.6-4.1-2.6c-0.6,0-1.2,0-1.8,0.1c0,1.8,0,3,0,5.9c0.6,0,0.9,0.1,1.4,0.1
		c2.4,0,3.1-0.4,3.3-1.8h0.9c0,0.7-0.1,1.5-0.1,2.2c0,1,0.1,2,0.1,2.9h-0.9c-0.2-1.6-0.8-1.9-3.5-1.9c-0.5,0-0.6,0-1.1,0v2.9
		c0,0.6,0,1.2,0,1.9c0.1,1.4,0.2,2.7,1.8,2.8v0.7l-0.6,0c-0.7,0-1.6,0-2.8,0c-1.2,0-2.2,0-2.9,0l-0.6,0v-0.7
		c1.2-0.1,1.7-0.8,1.8-1.9c0.1-0.8,0.1-1.2,0.1-3.8v-6.5c0-1.4-0.1-2-0.3-2.5c-0.2-0.7-0.7-1-1.6-1.1v-0.7h12
		c-0.1,0.5-0.1,1.3-0.1,2.4c0,1,0,1.2,0.1,1.8H225.7z"/>
	<path class="st3" d="M240.1,167.6c-0.8,0-1.2-0.1-1.7-0.4c-0.7-0.5-1.5-1.8-1.9-2.5c-0.7-1.3-1.5-2.6-2.3-3.8c-0.1,0-0.2,0-0.3,0
		c-0.2,0-0.4,0-0.6,0v1.1c0,0.6,0,1.2,0,1.7c0,1.2,0,1.7,0.2,2.1c0.2,0.6,0.6,0.8,1.3,0.9v0.6l-0.5,0c-0.6,0-1.3,0-2.3,0
		c-1,0-1.8,0-2.3,0l-0.5,0v-0.6c0.5,0,0.8-0.1,1.1-0.4c0.2-0.3,0.4-0.7,0.4-1.2c0.1-0.6,0.1-1,0.1-3.2v-3.6c0-2.6-0.1-3.3-0.2-3.9
		c-0.2-0.6-0.6-0.8-1.3-0.9v-0.6c0.4,0,0.9,0,1.3,0c1.1,0,1.5,0,2.8-0.1c1.2,0,1.8-0.1,2.3-0.1c1.5,0,2.3,0.2,3.1,0.7
		c0.8,0.6,1.4,1.7,1.4,2.8c0,1.8-1.2,3.2-3.1,3.9c0.8,1,1.5,2.1,2.2,3.2c0.7,1.1,1.4,2,1.9,2.6c0.3,0.3,0.5,0.4,0.9,0.5v0.6
		C241.3,167.6,240.8,167.6,240.1,167.6z M234.6,154.2c-0.4,0-0.8,0.1-1.3,0.2c0,1.3,0,3.6,0,5.3c0.2,0,0.7,0.1,0.9,0.1
		c1.8,0,2.9-1.1,2.9-2.8C237.2,155.4,236.1,154.2,234.6,154.2z"/>
	<path class="st3" d="M255.6,167.4c-0.5,0-1.3,0-2.3,0c-1,0-1.8,0-2.3,0l-0.5,0v-0.6c0.7,0,1.1-0.4,1.1-1c0-0.2-0.1-0.5-0.3-1.2
		c-0.3-0.8-0.4-1.3-0.7-2.1h-4.1l-0.4,1.2c-0.3,1-0.5,1.7-0.5,2c0,0.6,0.3,0.9,1,0.9v0.6c-0.8,0-1.1,0-2.1,0c-1,0-1.3,0-2.1,0v-0.6
		c0.3,0,0.4-0.1,0.7-0.3c0.4-0.4,0.8-1.1,1.5-2.7l2-5.2c0.6-1.4,1.4-3.7,2-5.5h1.5c0.2,0.7,0.6,1.7,0.9,2.5l3,7.8
		c0.5,1.3,0.9,2.1,1.2,2.6c0.3,0.5,0.6,0.8,1.1,0.9v0.6L255.6,167.4z M248.6,156.9c-0.6,1.5-1.3,3.4-1.7,4.4h3.2L248.6,156.9z"/>
	<path class="st3" d="M270.9,154.4c-0.2,0.4-0.3,0.8-0.3,1.9c-0.1,1.9-0.1,4.9-0.1,6.4v3.3c0,0.5,0.1,1.2,0.1,1.5h-1.5
		c-1.4-1.8-4.3-5.4-4.3-5.4c-0.3-0.4-3-3.7-4.4-5.4c0,0.5,0,0.2,0,1.6v1.4c0,1.6,0,3.2,0.1,4.8c0,0.9,0.1,1.4,0.3,1.8
		c0.2,0.4,0.5,0.6,1.2,0.6v0.6c-0.8,0-1.5,0-2.3,0c-0.8,0-1.5,0-2.3,0v-0.6c1.4,0,1.5-1.2,1.5-2.3c0-0.9,0-1.7,0-3v-4.5
		c0-1.8-0.1-2.2-0.4-2.7c-0.2-0.3-0.5-0.5-1.1-0.5v-0.6c0.7,0,1,0,1.9,0c0.9,0,1.1,0,1.8,0c0.3,0.5,0.7,0.9,2.1,2.7
		c2.1,2.6,4,4.7,5.8,7v-4.7c0-2.1,0-2.7-0.2-3.2c-0.2-0.7-0.6-1-1.4-1.1v-0.6c0.9,0,1.2,0,2.3,0c1.1,0,1.4,0,2.3,0v0.6
		C271.5,153.7,271.2,153.8,270.9,154.4z"/>
	<path class="st3" d="M285.9,166.9c-1.4,0.6-2.6,0.8-4.3,0.8l-0.2,0.9c0.1,0,0.3,0,0.4,0c0.8,0,1.4,0.6,1.4,1.3c0,1.2-0.9,2-2.4,2
		c-0.4,0-0.8-0.1-1.3-0.3l0.3-0.8c0.3,0.1,0.5,0.2,0.8,0.2c0.6,0,1-0.3,1-0.8c0-0.4-0.2-0.7-0.5-0.7c-0.2,0-0.3,0.1-0.5,0.2
		l-0.5-0.1l0.4-1.7c-1.9-0.2-3.3-0.8-4.4-2c-1.3-1.4-2-3.2-2-5.4c0-4.6,3-7.4,7.9-7.4c1.5,0,2.9,0.2,4.2,0.6c0,0.5,0,1,0,1.5
		c0,0.4,0,1.1,0,1.6h-0.8c-0.3-1.5-1.6-2.3-3.5-2.3c-3,0-4.9,2-4.9,5.4c0,3.9,2.2,6.7,5.2,6.7c1.8,0,3-0.9,3.5-2.6l0.8,0.2
		C286.2,164.6,286,165.8,285.9,166.9z"/>
	<path class="st3" d="M300.8,167.4c-0.5,0-1.3,0-2.3,0c-1,0-1.8,0-2.3,0l-0.5,0v-0.6c0.7,0,1.1-0.4,1.1-1c0-0.2-0.1-0.5-0.3-1.2
		c-0.3-0.8-0.4-1.3-0.7-2.1h-4.1l-0.4,1.2c-0.3,1-0.5,1.7-0.5,2c0,0.6,0.3,0.9,1,0.9v0.6c-0.8,0-1.1,0-2.1,0c-1,0-1.3,0-2.1,0v-0.6
		c0.3,0,0.4-0.1,0.7-0.3c0.4-0.4,0.8-1.1,1.5-2.7l2-5.2c0.6-1.4,1.4-3.7,2-5.5h1.5c0.2,0.7,0.6,1.7,0.9,2.5l3,7.8
		c0.5,1.3,0.9,2.1,1.2,2.6c0.3,0.5,0.6,0.8,1.1,0.9v0.6L300.8,167.4z M293.8,156.9c-0.6,1.5-1.3,3.4-1.7,4.4h3.2L293.8,156.9z"/>
	<path class="st3" d="M307.8,167.4c-0.5,0-1.3,0-2.3,0c-1,0-1.8,0-2.4,0l-0.5,0v-0.6c1-0.1,1.4-0.6,1.5-1.6c0.1-0.6,0.1-1,0.1-3.2
		v-3.6c0-0.6,0-1.1,0-1.8c0-1.1,0-1.7-0.2-2.1c-0.2-0.6-0.6-0.8-1.3-0.9v-0.6l0.5,0c0.6,0,1.3,0,2.4,0c1,0,1.8,0,2.3,0l0.5,0v0.6
		c-0.9,0.1-1.4,0.6-1.5,1.6c-0.1,0.6-0.1,1.2-0.1,3.2v3.6c0,2.8,0,3.3,0.2,3.8c0.2,0.6,0.6,0.8,1.3,0.9v0.6L307.8,167.4z"/>
	<path class="st3" d="M314.5,167.7c-1.2,0-2.1-0.2-3.6-0.7c-0.1-0.8-0.2-2.1-0.4-3.1l0.8-0.1c0.5,1.7,1.7,2.6,3.3,2.6
		c1.5,0,2.6-0.8,2.6-2c0-1-0.7-1.6-1.6-2.2l-2.3-1.4c-1.5-1-2.4-2-2.4-3.9c0-2.4,1.8-4,4.7-4c1.4,0,2.5,0.3,3.5,0.8
		c0,0.5,0,0.7,0,1.4c0,0.8,0,1,0,1.6h-0.8c-0.3-1.5-1.3-2.4-2.7-2.4c-1.3,0-2.3,0.8-2.3,2c0,1,0.7,1.7,1.8,2.4l1.8,1.2
		c1.7,1.1,2.7,2.2,2.7,4C319.5,166.1,317.5,167.7,314.5,167.7z"/>
	<path class="st3" d="M331.7,167.1c-0.2,0.3-0.4,0.4-1.6,0.4c-0.7,0-1.4,0-2.2-0.1c-1,0-2.1-0.1-3.1-0.1c-1,0-2.1,0-3.1,0.1v-0.6
		c1-0.1,1.4-0.6,1.5-1.6c0.1-0.6,0.1-1.3,0.1-2.4v-6.1c0-1.1-0.1-1.7-0.2-2.1c-0.2-0.6-0.6-0.8-1.3-0.9v-0.6h10.1c0,0.6,0,1.3,0,1.9
		c0,0.5,0,1,0,1.5h-0.8c-0.2-1.7-0.9-2.1-3.4-2.1c-0.5,0-1.1,0-1.6,0c0,0.8-0.1,1.1-0.1,2.4v2.5c0.3,0,0.6,0,1,0
		c2.2,0,2.9-0.3,3.1-1.5h0.8c0,0.3,0,1.1,0,2.1c0,1.1,0,1.7,0,2.1H330c-0.1-1.2-0.6-1.5-2.9-1.5c-0.4,0-0.8,0-1.2,0
		c0,1.4,0,2.7,0,4.1c0,0.9,0.2,1.2,0.7,1.3c0.3,0.1,0.8,0.1,1.5,0.1c2.3,0,3.1-0.5,3.6-2.3l0.8,0.2
		C332.3,165.5,332,166.7,331.7,167.1z"/>
	<path class="st3" d="M78.2,138.5c-0.2,0.3-0.5,0.3-1.3,0.3c-1,0-2-0.1-3.1-0.1c-0.9,0-1.5,0-2,0c-0.6,0-2.2,0-2.6,0l-0.3,0l0.1-0.4
		c0.6-0.1,1-0.3,1.3-0.6c0.3-0.4,0.5-1,0.8-2.2c0.3-1.2,0.4-1.8,0.8-4l0.3-1.7c0.3-1.7,0.5-2.7,0.5-3.2c0-0.9-0.3-1.3-1.2-1.4
		l0.1-0.5c0.1,0,0.2,0,0.3,0c0.8,0,1.5,0,2.3,0c1.2,0,2,0,2.4,0c0.1,0,0.2,0,0.3,0l-0.1,0.5c-0.6,0-1,0.2-1.3,0.6
		c-0.5,0.7-0.8,1.6-1.6,5.6l-0.3,1.4c-0.3,1.7-0.5,2.3-0.6,3.1c0,0.3-0.1,0.5-0.1,0.6c0,0.8,0.4,1.1,1.8,1.1c2.4,0,3.2-0.5,4-2.2
		l0.6,0.2C78.9,137.1,78.4,138.2,78.2,138.5z"/>
	<path class="st3" d="M84.4,128.3c-0.6,0-1.1-0.4-1.1-1c0-0.8,0.5-1.3,1.3-1.3c0.6,0,1,0.4,1,1C85.6,127.8,85.1,128.3,84.4,128.3z
		 M82.1,139c-0.4,0-0.7-0.2-0.7-0.6c0-0.2,0.1-0.5,0.2-1c0.3-1.1,0.6-2.6,0.9-3.4c0.3-1.1,0.4-1.8,0.4-2.1c0-0.3-0.1-0.4-0.4-0.4
		c-0.2,0-0.4,0.1-0.8,0.2l-0.1,0l-0.1-0.6c1.2-0.4,2.3-0.7,2.8-0.7c0.3,0,0.4,0.1,0.4,0.4c0,0.3-0.1,0.9-0.5,2.4l-0.3,1.2
		c-0.5,2-0.6,2.7-0.6,3.1c0,0.3,0.2,0.5,0.5,0.5c0.2,0,0.6-0.1,1.2-0.3l0,0.6C83.9,138.7,82.7,139,82.1,139z"/>
	<path class="st3" d="M93.6,138c-0.8,0.7-1.8,1-3.3,1c-1.6,0-2.6-0.3-2.6-0.7c0-0.2,0-0.4,0.2-1.3l1.1-4.7c0.4-1.5,0.6-2.7,1-4.5
		c0.2-1,0.3-1.5,0.3-1.8c0-0.2-0.1-0.4-0.4-0.4c-0.1,0-0.6,0.1-0.9,0.2l0-0.6l0.3-0.1c1.1-0.4,2.1-0.6,2.5-0.6
		c0.3,0,0.4,0.1,0.4,0.4c0,0.2-0.1,0.8-0.5,2.3l-0.6,2.8c-0.2,0.9-0.3,1.2-0.3,1.5c1.3-0.8,2.5-1.1,3.5-1.1c1.3,0,1.9,0.6,1.9,2
		C96.2,134.3,95.1,136.7,93.6,138z M93.6,131.3c-0.4,0-0.8,0.1-1.4,0.5c-0.6,0.3-1,0.6-1.3,1c-0.3,0.4-0.5,1-0.8,2.4
		c-0.3,1.3-0.5,2.1-0.5,2.4c0,0.4,0.5,0.6,1.3,0.6c0.9,0,1.6-0.4,2.1-1.2c0.8-1.2,1.5-3.1,1.5-4.5C94.5,131.7,94.2,131.3,93.6,131.3
		z"/>
	<path class="st3" d="M100.8,135.4c-0.1,0-0.3,0-0.6,0c-0.1,0.4-0.1,0.7-0.1,1c0,1.1,0.4,1.6,1.1,1.6c0.7,0,1.5-0.4,2.7-1.1l0.2,0.7
		c-1.5,1-2.7,1.4-3.8,1.4c-1.3,0-2-0.8-2-2.2c0-3.5,2.3-6.4,5-6.4c1.3,0,2.1,0.6,2.1,1.7C105.5,134,103.5,135.4,100.8,135.4z
		 M102.9,131.2c-1,0-2.1,1.4-2.6,3.4h0.2c1.9,0,3.4-1,3.4-2.4C104,131.7,103.5,131.2,102.9,131.2z"/>
	<path class="st3" d="M113.9,133.1l-0.7-0.1c0-0.3,0.1-0.5,0.1-0.8c0-0.4-0.3-0.6-0.9-0.6c-0.3,0-0.6,0.2-0.9,0.5
		c-0.8,0.9-1.1,2.3-1.6,4.6l-0.4,2c-0.8,0-1,0.1-1.8,0.2c0.2-0.8,0.4-1.4,0.5-2.1l0.5-1.9c0.3-1.3,0.5-2.1,0.5-2.6
		c0-0.5-0.1-0.8-0.4-0.8c-0.1,0-0.3,0-0.5,0.1l-0.5,0.2l-0.1-0.6c1-0.4,2.2-0.8,2.7-0.8c0.2,0,0.3,0.1,0.4,0.3
		c0.1,0.3,0.1,0.5,0.1,0.9c0.9-0.8,1.8-1.2,2.4-1.2c0.4,0,0.9,0.2,1.4,0.6C114.3,131.7,114.1,132.4,113.9,133.1z"/>
	<path class="st3" d="M121,131.7l-1.7,0l-0.9,4.3c-0.2,1.1-0.3,1.4-0.3,1.6c0,0.3,0.1,0.5,0.4,0.5c0.1,0,0.5-0.1,1-0.2l0.2-0.1
		l0.1,0.6c-1.1,0.4-2.2,0.7-2.8,0.7c-0.4,0-0.7-0.2-0.7-0.6c0-0.4,0.1-0.9,0.2-1.5c0.2-0.7,0.3-1.3,0.5-2.2l0.6-3.1l-1.1,0l0.1-0.7
		c1.4-0.3,1.9-1.4,2.3-2.6l1-0.2l-0.5,2.5l1.7,0L121,131.7z"/>
	<path class="st3" d="M127.4,129.1l-0.7-0.5l2.6-2.9l1.9,0.5L127.4,129.1z M125.1,135.4c-0.1,0-0.3,0-0.6,0c-0.1,0.4-0.1,0.7-0.1,1
		c0,1.1,0.4,1.6,1.1,1.6c0.7,0,1.5-0.4,2.7-1.1l0.2,0.7c-1.5,1-2.7,1.4-3.8,1.4c-1.3,0-2-0.8-2-2.2c0-3.5,2.3-6.4,5-6.4
		c1.3,0,2.1,0.6,2.1,1.7C129.8,134,127.8,135.4,125.1,135.4z M127.2,131.2c-1,0-2.1,1.4-2.6,3.4h0.2c1.9,0,3.4-1,3.4-2.4
		C128.3,131.7,127.8,131.2,127.2,131.2z"/>
	<path class="st3" d="M163.3,123.4l-0.7-0.5l2.6-2.9l1.9,0.5L163.3,123.4z M167.3,127.9h-0.6c0-0.2,0-0.3,0-0.5
		c0-1.1-0.8-1.5-2.8-1.5c-0.7,0-1.4,0-2,0.1c-0.4,1.7-0.7,3.2-1.1,5.1c0.3,0,0.4,0,0.8,0c1.3,0,1.9,0,2.4-0.1
		c0.8-0.1,1.2-0.6,1.5-1.4h0.6c-0.3,1.2-0.6,3-0.8,4.1h-0.6c0-0.1,0-0.3,0-0.4c0-0.9-0.6-1.2-2.3-1.2c-1,0-1.4,0-1.8,0
		c-0.1,0.5,0,0.1-0.5,2.5c-0.2,1.2-0.3,1.9-0.3,2.3c0,0.7,0.4,0.9,1.8,0.9c2.6,0,3.5-0.4,4.3-2.2l0.5,0.2c-0.5,1.4-1,2.5-1.3,2.8
		c-0.2,0.2-0.5,0.3-1.4,0.3c-0.7,0-1.5,0-2.2,0c-1,0-1.9,0-2.9,0c-1,0-1.9,0-2.9,0l0.1-0.4c0.6-0.1,1-0.3,1.3-0.6
		c0.3-0.4,0.5-1,0.8-2.2c0.3-1.2,0.4-1.7,0.8-4l0.3-1.7c0.3-1.6,0.5-2.7,0.5-3.2c0-0.9-0.3-1.3-1.2-1.4l0.1-0.5h9.5
		C167.7,125.8,167.5,126.9,167.3,127.9z"/>
	<path class="st3" d="M177.7,131.6l-1.4,0c0.3,0.4,0.3,0.8,0.3,1.3c0,1.9-1.6,3.4-3.7,3.4c-0.4,0-0.7,0-1.1-0.2
		c-0.5,0.3-0.7,0.5-0.7,0.6c0,0.2,0.2,0.3,1.1,0.6l1.7,0.5c1.7,0.5,2.5,1,2.5,2.2c0,2.2-2.2,4-5,4c-2.3,0-3.7-1.1-3.7-2.9
		c0-1.6,1-2.4,2.8-2.8c-1-0.4-1.3-0.5-1.3-0.9c0-0.5,0.6-1,1.9-1.7c-0.6-0.5-1-1.1-1-1.9c0-2,1.6-3.5,3.7-3.5c0.5,0,0.9,0.1,1.4,0.2
		h2.8L177.7,131.6z M173.7,131.2c-1.1,0-2,1.2-2,2.6c0,1,0.6,1.7,1.4,1.7c1.1,0,2-1.2,2-2.6C175,131.8,174.5,131.2,173.7,131.2z
		 M174,139.7c-0.7-0.3-1.6-0.6-2.4-0.8c-1.4,0.4-2.4,1.4-2.4,2.6c0,1.1,1,1.9,2.5,1.9c1.8,0,3.5-1.2,3.5-2.6
		C175,140.3,174.7,140,174,139.7z"/>
	<path class="st3" d="M185.5,139c-0.4,0-0.5-0.2-0.7-1.3c-1.5,0.9-2.7,1.3-3.8,1.3c-1.3,0-2-0.6-2-1.8c0-1.1,0.5-2.7,1.4-4
		c1.1-1.8,2.5-2.9,4.7-2.9c0.9,0,1.8,0.2,2.7,0.4l-0.1,0.3c-0.8,2.4-1.3,5.1-1.3,6c0,0.6,0.1,0.9,0.4,0.9c0.2,0,0.6-0.1,1.1-0.3
		l0.1,0.6C186.9,138.7,185.9,139,185.5,139z M184.6,131.3c-0.8,0-1.7,0.6-2.4,1.8c-0.8,1.3-1.4,3-1.4,4.1c0,0.6,0.3,1,0.8,1
		c0.8,0,2.1-0.7,2.7-1.2c0.3-0.3,0.5-0.7,0.7-1.5c0.3-1.3,0.6-2.5,0.8-3.8C185.3,131.4,184.9,131.3,184.6,131.3z"/>
	<path class="st3" d="M194.8,126.7c-0.7,2.8-1.4,5.9-2.1,8.8c-0.2,1-0.3,1.6-0.3,1.9c0,0.3,0.1,0.5,0.5,0.5c0.2,0,0.6-0.1,1.1-0.3
		l0,0.6c-1.1,0.4-2.4,0.8-2.9,0.8c-0.4,0-0.6-0.2-0.6-0.6c0-0.3,0.1-0.7,0.4-2c0.6-2.8,1.4-5.7,1.9-8.3c0.3-1.2,0.4-1.8,0.4-2
		c0-0.2-0.1-0.4-0.4-0.4c-0.2,0-0.6,0.1-0.9,0.2l0-0.6c1.1-0.4,2.2-0.7,2.8-0.7c0.3,0,0.4,0.1,0.4,0.4
		C195.1,125.1,195,125.6,194.8,126.7z"/>
	<path class="st3" d="M200,128.3c-0.6,0-1.1-0.4-1.1-1c0-0.8,0.5-1.3,1.3-1.3c0.6,0,1,0.4,1,1C201.2,127.8,200.7,128.3,200,128.3z
		 M197.7,139c-0.4,0-0.7-0.2-0.7-0.6c0-0.2,0.1-0.5,0.2-1c0.3-1.1,0.6-2.6,0.9-3.4c0.3-1.1,0.4-1.8,0.4-2.1c0-0.3-0.1-0.4-0.4-0.4
		c-0.2,0-0.4,0.1-0.8,0.2l-0.1,0l-0.1-0.6c1.1-0.4,2.3-0.7,2.8-0.7c0.3,0,0.4,0.1,0.4,0.4c0,0.3-0.1,0.9-0.5,2.4l-0.3,1.2
		c-0.5,2-0.6,2.7-0.6,3.1c0,0.3,0.2,0.5,0.5,0.5c0.2,0,0.6-0.1,1.1-0.3l0,0.6C199.5,138.7,198.3,139,197.7,139z"/>
	<path class="st3" d="M208.2,131.7l-1.7,0l-0.9,4.3c-0.2,1.1-0.2,1.4-0.2,1.6c0,0.3,0.1,0.5,0.4,0.5c0.1,0,0.5-0.1,1-0.2l0.2-0.1
		l0.1,0.6c-1.1,0.4-2.2,0.7-2.8,0.7c-0.4,0-0.7-0.2-0.7-0.6c0-0.4,0.1-0.9,0.3-1.5c0.2-0.7,0.3-1.3,0.5-2.2l0.6-3.1l-1.1,0l0.1-0.7
		c1.4-0.3,1.9-1.4,2.3-2.6l1-0.2l-0.5,2.5l1.7,0L208.2,131.7z"/>
	<path class="st3" d="M214.6,129.1l-0.7-0.5l2.5-2.9l1.9,0.5L214.6,129.1z M212.3,135.4c-0.1,0-0.3,0-0.6,0c-0.1,0.4-0.1,0.7-0.1,1
		c0,1.1,0.4,1.6,1.1,1.6c0.7,0,1.5-0.4,2.7-1.1l0.2,0.7c-1.5,1-2.7,1.4-3.8,1.4c-1.3,0-2-0.8-2-2.2c0-3.5,2.3-6.4,5-6.4
		c1.3,0,2.1,0.6,2.1,1.7C217,134,215,135.4,212.3,135.4z M214.4,131.2c-1,0-2.1,1.4-2.6,3.4h0.2c1.9,0,3.4-1,3.4-2.4
		C215.5,131.7,215,131.2,214.4,131.2z"/>
	<path class="st3" d="M254.2,127.8h-0.6c0-0.2,0-0.4,0-0.5c0-0.4-0.1-0.8-0.4-1c-0.4-0.4-1.1-0.5-2.7-0.5c-0.4,0-1,0-1.5,0
		c-0.4,1.7-0.7,3.4-1.1,5.1c0.4,0,0.8,0,1.2,0c2.3,0,2.8-0.2,3.2-1.6h0.6c-0.3,1.4-0.6,2.7-0.8,4.1h-0.6c0-0.1,0-0.3,0-0.4
		c0-0.4-0.1-0.7-0.4-0.9c-0.4-0.3-0.8-0.3-2-0.3c-0.7,0-0.9,0-1.4,0l-0.3,1.4c-0.4,2-0.5,3-0.5,3.5c0,0.9,0.4,1.3,1.2,1.4l-0.1,0.4
		l-0.3,0c-0.2,0-1.1,0-1.9,0c-0.8,0-2.4,0-2.7,0l-0.4,0l0.1-0.4c0.6-0.1,1-0.3,1.3-0.6c0.3-0.4,0.6-1,0.8-2.2c0.3-1.2,0.4-1.8,0.8-4
		l0.3-1.7c0.3-1.7,0.5-2.7,0.5-3.2c0-0.9-0.3-1.3-1.2-1.4l0.1-0.5h9.3C254.6,125.8,254.4,126.8,254.2,127.8z"/>
	<path class="st3" d="M261.4,133.1l-0.7-0.1c0-0.3,0.1-0.5,0.1-0.8c0-0.4-0.3-0.6-0.9-0.6c-0.3,0-0.6,0.2-0.9,0.5
		c-0.8,0.9-1.1,2.3-1.6,4.6l-0.4,2c-0.8,0-1,0.1-1.8,0.2c0.2-0.8,0.4-1.4,0.5-2.1l0.5-1.9c0.3-1.3,0.5-2.1,0.5-2.6
		c0-0.5-0.1-0.8-0.4-0.8c-0.1,0-0.3,0-0.5,0.1l-0.5,0.2l-0.1-0.6c1-0.4,2.2-0.8,2.7-0.8c0.2,0,0.3,0.1,0.4,0.3
		c0.1,0.3,0.1,0.5,0.1,0.9c0.9-0.8,1.8-1.2,2.4-1.2c0.4,0,0.9,0.2,1.4,0.6C261.8,131.7,261.5,132.4,261.4,133.1z"/>
	<path class="st3" d="M269.6,139c-0.4,0-0.5-0.2-0.7-1.3c-1.5,0.9-2.7,1.3-3.8,1.3c-1.3,0-2-0.6-2-1.8c0-1.1,0.5-2.7,1.4-4
		c1.1-1.8,2.5-2.9,4.7-2.9c0.9,0,1.8,0.2,2.7,0.4l-0.1,0.3c-0.8,2.4-1.3,5.1-1.3,6c0,0.6,0.1,0.9,0.4,0.9c0.2,0,0.6-0.1,1.1-0.3
		l0.1,0.6C271,138.7,270,139,269.6,139z M268.7,131.3c-0.8,0-1.7,0.6-2.4,1.8c-0.8,1.3-1.4,3-1.4,4.1c0,0.6,0.3,1,0.8,1
		c0.8,0,2.1-0.7,2.7-1.2c0.3-0.3,0.5-0.7,0.7-1.5c0.3-1.3,0.6-2.5,0.8-3.8C269.4,131.4,269,131.3,268.7,131.3z"/>
	<path class="st3" d="M279.6,131.7l-1.7,0l-0.9,4.3c-0.2,1.1-0.2,1.4-0.2,1.6c0,0.3,0.1,0.5,0.4,0.5c0.1,0,0.5-0.1,1-0.2l0.2-0.1
		l0.1,0.6c-1.1,0.4-2.2,0.7-2.8,0.7c-0.4,0-0.7-0.2-0.7-0.6c0-0.4,0.1-0.9,0.3-1.5c0.2-0.7,0.3-1.3,0.5-2.2l0.6-3.1l-1.1,0l0.1-0.7
		c1.4-0.3,1.9-1.4,2.3-2.6l1-0.2l-0.5,2.5l1.7,0L279.6,131.7z"/>
	<path class="st3" d="M283.7,135.4c-0.1,0-0.3,0-0.6,0c-0.1,0.4-0.1,0.7-0.1,1c0,1.1,0.4,1.6,1.1,1.6c0.7,0,1.5-0.4,2.7-1.1l0.2,0.7
		c-1.5,1-2.7,1.4-3.8,1.4c-1.3,0-2-0.8-2-2.2c0-3.5,2.3-6.4,5-6.4c1.3,0,2.1,0.6,2.1,1.7C288.4,134,286.4,135.4,283.7,135.4z
		 M285.8,131.2c-1,0-2.1,1.4-2.6,3.4h0.2c1.9,0,3.4-1,3.4-2.4C286.9,131.7,286.4,131.2,285.8,131.2z"/>
	<path class="st3" d="M296.8,133.1l-0.7-0.1c0-0.3,0.1-0.5,0.1-0.8c0-0.4-0.3-0.6-0.9-0.6c-0.3,0-0.6,0.2-0.9,0.5
		c-0.8,0.9-1.1,2.3-1.6,4.6l-0.4,2c-0.8,0-1,0.1-1.8,0.2c0.2-0.8,0.4-1.4,0.5-2.1l0.5-1.9c0.3-1.3,0.5-2.1,0.5-2.6
		c0-0.5-0.1-0.8-0.4-0.8c-0.1,0-0.3,0-0.5,0.1l-0.5,0.2l-0.1-0.6c1-0.4,2.2-0.8,2.7-0.8c0.2,0,0.3,0.1,0.4,0.3
		c0.1,0.3,0.1,0.5,0.1,0.9c0.9-0.8,1.8-1.2,2.4-1.2c0.4,0,0.9,0.2,1.4,0.6C297.2,131.7,297,132.4,296.8,133.1z"/>
	<path class="st3" d="M305.1,139c-0.4,0-0.7-0.3-0.7-0.6c0-0.3,0.1-0.7,0.3-1.8l0.2-0.9c0.6-2.6,0.8-3.5,0.8-3.8
		c0-0.3-0.1-0.5-0.4-0.5c-0.4,0-0.9,0.2-1.6,0.6c-0.7,0.4-1.2,0.8-1.4,1.2c-0.2,0.3-0.3,0.9-0.6,2c-0.3,1.5-0.5,2.6-0.7,3.6
		c-0.8,0.1-1,0.1-1.8,0.2c0.4-1.6,0.7-2.9,1-4.3c0.3-1.4,0.4-2.1,0.4-2.5c0-0.5-0.1-0.7-0.5-0.7c-0.2,0-0.5,0.1-1,0.3l0-0.6
		c1-0.4,2.1-0.7,2.6-0.7c0.5,0,0.6,0.3,0.6,1.3v0.2c1.6-0.9,3.2-1.4,4.4-1.4c0.7,0,1,0.2,1,0.6c0,0.4-0.1,1.1-0.6,2.8
		c-0.2,1-0.5,2-0.6,2.4c-0.1,0.6-0.2,1-0.2,1.2c0,0.3,0.2,0.5,0.5,0.5c0.2,0,0.6-0.1,1.1-0.3l0.1,0.6
		C306.9,138.7,305.6,139,305.1,139z"/>
	<path class="st3" d="M313.9,128.3c-0.7,0-1.1-0.4-1.1-1c0-0.8,0.5-1.3,1.3-1.3c0.6,0,1,0.4,1,1
		C315.2,127.8,314.7,128.3,313.9,128.3z M311.7,139c-0.4,0-0.7-0.2-0.7-0.6c0-0.2,0.1-0.5,0.2-1c0.3-1.1,0.6-2.6,0.9-3.4
		c0.3-1.1,0.4-1.8,0.4-2.1c0-0.3-0.1-0.4-0.4-0.4c-0.2,0-0.4,0.1-0.8,0.2l-0.1,0l-0.1-0.6c1.1-0.4,2.3-0.7,2.8-0.7
		c0.3,0,0.4,0.1,0.4,0.4c0,0.3-0.1,0.9-0.5,2.4l-0.3,1.2c-0.5,2-0.6,2.7-0.6,3.1c0,0.3,0.2,0.5,0.5,0.5c0.2,0,0.6-0.1,1.2-0.3l0,0.6
		C313.4,138.7,312.3,139,311.7,139z"/>
	<path class="st3" d="M322.2,131.7l-1.7,0l-0.9,4.3c-0.2,1.1-0.3,1.4-0.3,1.6c0,0.3,0.1,0.5,0.4,0.5c0.1,0,0.5-0.1,1-0.2l0.2-0.1
		l0.1,0.6c-1.1,0.4-2.2,0.7-2.8,0.7c-0.4,0-0.7-0.2-0.7-0.6c0-0.4,0.1-0.9,0.3-1.5c0.2-0.7,0.3-1.3,0.5-2.2l0.6-3.1l-1.1,0l0.1-0.7
		c1.4-0.3,1.9-1.4,2.3-2.6l1-0.2l-0.5,2.5l1.7,0L322.2,131.7z"/>
	<path class="st4" d="M327.1-109.2l-0.7-0.5l2.5-2.9l1.9,0.5L327.1-109.2z M324.8-102.9c-0.1,0-0.3,0-0.6,0c-0.1,0.4-0.1,0.7-0.1,1
		c0,1.1,0.4,1.6,1.1,1.6c0.7,0,1.5-0.4,2.7-1.1l0.2,0.7c-1.5,1-2.7,1.4-3.8,1.4c-1.3,0-2-0.8-2-2.2c0-3.5,2.3-6.4,5-6.4
		c1.3,0,2.1,0.6,2.1,1.7C329.5-104.3,327.5-102.9,324.8-102.9z M327-107c-1,0-2.1,1.4-2.6,3.4h0.2c1.9,0,3.4-1,3.4-2.4
		C328-106.6,327.5-107,327-107z"/>
	<path class="st3" d="M230.5,135.1c1.4,0,2.5-1.1,2.5-2.5c0-1.4-1.1-2.5-2.5-2.5c-1.4,0-2.5,1.1-2.5,2.5
		C228,134,229.1,135.1,230.5,135.1z"/>
	<path class="st3" d="M143.4,135.1c1.4,0,2.5-1.1,2.5-2.5c0-1.4-1.1-2.5-2.5-2.5c-1.4,0-2.5,1.1-2.5,2.5
		C140.9,134,142,135.1,143.4,135.1z"/>
	<g>
		<defs>
			<polyline id="SVGID_1_" points="331.8,25.1 331.8,112.7 70.7,112.7 70.7,25.1 			"/>
		</defs>
		<clipPath id="SVGID_2_">
			<use xlink:href="#SVGID_1_"  style="overflow:visible;"/>
		</clipPath>
		<rect x="68.2" y="21.1" class="st5" width="266.5" height="93.9"/>
		<path class="st6" d="M148.6,79.5c-2.4,0.7-4.8,0.8-7,2c5.2-0.2,10.4,0.6,15.4,2.2c1.8,0.6,3.4,1.4,5,2.4c0.8,0.6,1.2,1.2,2,1.6
			c1,0.6,2.4,0.6,3.4,0.2c0.2,0,0.8,0,1,0c3-0.8,6.2-1.6,8.2-3.8c0,0.2,0.2,0.2,0.4,0.2c-0.6,1.6-0.6,3.4-1.8,4.8
			c0,0.2-0.2,0.6,0.2,0.8c0.2,0,0.2,0,0.4,0c-0.2,0-0.4,0-0.4,0.2c0,0.4,0.6,0,0.8,0.4c-1,0.2-2,0.4-2.6,1.2c0,0.2,0.4,0.2,0.6,0.2
			c-0.4,0.4-1,0.2-1.2,0.6c0,0,0.2,0.2,0.4,0.2c-0.2,0-0.4,0-0.4,0.2c0,0.2,0,0.4,0,0.6c-0.6,0-0.8,0.4-1.2,0.6c0.8,0.6,1.4,0,2.2,0
			c-2.2,0.8-4,2-6.2,2.6c-0.4,0,0,0.6-0.4,0.6c0.6,0.4,1-0.2,1.6-0.2c-2.8,1.6-5.6,3-8.6,4.8c0,0-0.4,0.4-0.4,0.8
			c-0.2,0-0.6,0-0.8,0c-0.4,0.2-0.2,0.8-0.6,1.2c1,0.6,2.2-0.8,2.8,0c0.2,0-0.4,0.2-0.8,0.2c-0.2,0-0.2,0.4-0.4,0.4
			c-0.2,0-0.4,0-0.6,0c-0.4,0.4-0.8,0.6-0.8,1.2c-0.4,0-0.8,0-1,0.4c4.4-0.6,9-0.2,13.2-2.4c3.2-1.6,6.2-3.8,8.8-6.6
			c0,0,0.2,0.2,0.2,0.4c-0.6,2-1.8,3.4-3.4,4.6c-1.2,0.6-2,1.6-3,2c-0.6,0.4-1.2,0.8-1.8,1.2c-7.4,2.6-16.2,1.4-22.5,6.4
			c0-0.2-0.2-0.2-0.4-0.2c-0.4,0.4-1,0.6-1.2,1c0,0.4,0.6,0.2,0.8,0.2c1.2-0.8,2.4-1.4,3.8-1.8c-1.6,0.8-3.2,2-4.8,2.4
			c-3.4,0.6-6.6,0.4-10,0c2-1.2,4-2.6,6.2-3.8c-0.6-0.4-1.2-0.4-1.8-0.4c-1,0.2-2.2-0.4-3.2,0c-3,1.4-7,1-8.6,4.2
			c-19.9,0.4-40.1,0-60,0c0.4-21.7,0-43.3,0.6-65c0.2-7.8-0.2-15.6-0.2-23.3c5.4-1,10.8-0.4,16.2-0.2c34.5,0,68.8-0.2,103.3,0
			c-2.4,1.2-5.2,2.2-7,4.4c-1.6,2-3.2,4-3.8,6.4c-2.6,1.6-4.2,4-5.6,6.4c-1.8,3.4-4.4,6.4-4,10.2c0.4,3.2,1.2,6.2,1.8,9.6
			c0.2,1.2,0.4,2.2,0.8,3.4c0.4,1.2,0,2.6,0.6,3.6c0.4,0.6,0.2,1.4,1,1.8c0,0.2,0,0.6,0,0.8c0.2,0.2,0.2,0.4,0.6,0.4
			c0,0.2,0,0.6,0,0.8c1.6,2,3.6,3.8,4.6,6c0.4,1.2-2,0.6-3,0.2c-2-1-3.2-2.6-4.8-4c0,0-0.2,0.2-0.2,0.4c0.8,1.4,3.8,3.2,2.2,4.2
			c-0.8,0.4-1.8-0.6-2.6,0.2c-0.2,0.4,0,0.8,0,1.2c-1.2-0.8-2.4-0.4-3.6-0.8c-0.8-0.2-1-1.8-2-1.8c-2.6-0.6-5-1.2-7.6-1.4
			c-3.6-0.4-7-1-10.6-0.4c-3.2,0.2-5.6,2.6-7.6,5c0,0.2,0,0.6,0,0.6c1.4,0.2,2-1,3.2-1.4c2-0.4,3.8-1.2,5.8-1.6
			c3-0.6,5.8-1.4,8.6-1.2c0.6,0,1.4-0.2,2,0C155.2,77.3,152,78.5,148.6,79.5z"/>
		<path class="st5" d="M137.4,89.1c-0.6,0.2-1.2,0.6-1,1c0.6,0.8,1.8-0.2,2.8-0.2c-1.2,0.4-2.6,0.2-3.6,1.2c0.8,0.6,1.6,0.2,2.4,0.2
			c0,0.4,0.4,0.4,0.6,0.6c-1,0.4-1.8,1.2-2,1.8c-0.4,1-1.4,1.4-2,2.2c0,0.2,0,0.4,0,0.6c-2,1.8-4.2,3-5.8,5.2c0.2,0,0.2,0.2,0.2,0.4
			c-0.4,0.6-1.2,0.8-1.4,1.4c0,0.2,0,0.4,0.2,0.4c2.4-0.8,4.2-2.6,6.4-3.4c1.6-0.4,2.8-1.4,4.2-1.8c1-0.2,2.2-0.6,3.2-0.8
			c0,0.2,0,0.4,0.2,0.4c0.6,0,1,0,1.6,0c-0.2,0.4-1,0.2-0.8,0.4c0.6,0.6,1.8,0.4,2.6,0c0.6-0.4,1.2-0.4,2-0.4c0.2,0,0.2-0.4,0.2-0.6
			c0.6,0.2,1,0.2,1.6,0.2c4.8-1,9.4-2,13.8-4.2c-5.2-4-11.8-5.4-17.9-7.2c0.6,0,1.2,0.6,1.8,0c-1-0.8-2.2-0.4-3.2-1
			c0.2,0,0.6,0.2,0.8-0.2c-1.6-0.8-3.2-0.8-4.8-1.2c1-0.2,1.6-1,1.6-2c0-0.2-0.4-0.2-0.6-0.2c-2.4,1.2-4,3.4-5,6
			c1.4,0.8,3,0.2,4.4,0.4C139.2,88.9,138.2,88.9,137.4,89.1z"/>
		<path class="st5" d="M129.2,81.3c-2,2.2-4.2,4.2-6.8,5.6c-1.8,3.6-3.8,6.8-6.4,10.2c0,0.2,0.2,0.4,0.2,0.4
			c4.8-5.4,9.2-10,15.4-13.8c0.4-0.2-0.6,0.6,0.2,0.4c2.6-0.6,3.4-3.2,4.6-5.2c1.6-2.6,4.4-3.6,6.4-5.8c0,0.2,0,0.4-0.2,0.6
			c0.2,0.2,0.4,0.2,0.6,0.2c0.8-0.6,1.8-0.4,2.4-1.2c-1.6-0.6-3.6-0.8-5.2-0.2C136.2,74.5,132.6,77.7,129.2,81.3z"/>
		<path class="st5" d="M132.2,85.1c0.2-0.4,0.4-0.4,0.6-0.8c0-0.2,0-0.4-0.2-0.4c-0.8,0.2-1.4,1-1.6,1.8c0,0.2,0.2,0.2,0.4,0.2
			C131.8,85.7,132,85.5,132.2,85.1z"/>
		<path class="st5" d="M148.2,100.3c-0.8,0.4-2.2,0.4-2.4,1.4c-0.2,0.4,0.6,0.2,1,0.2c1.4-0.6,3,0,4.2-1.2c-0.4-0.4-1-0.2-1.4-0.8
			C149.2,99.7,148.6,100.1,148.2,100.3z"/>
		<path class="st6" d="M169.9,111c1.2-0.3,2.4-1,3.6-1.4c0,0.2,0,0.2,0,0.4c3-1.2,5.2-3.8,8.2-4.8c0.2,0,0.6,0.4,1,0.2
			c1.8-1.6,3.8-3.4,6.4-3c0,0.2,0,0.4,0.2,0.4c0.2,0,0.4,0,0.4-0.2c-0.8,0.6-1.6,1.2-2.4,1.8c-0.2,0.2,0,0.4,0.2,0.4
			c1-0.4,1.6-1.2,2.6-1.6c-0.2,0.2-0.2,0.6-0.4,0.8c-3.8,2.8-6.6,6-9.6,9.4c-2,0-4.2,0-6.2,0c0-0.2,0-0.4-0.2-0.4
			c-7,0.6-13.8,0.4-20.7,0.4c4-0.6,8-1.8,12-2.2C166.5,111.2,168.1,111.4,169.9,111z"/>
		<path class="st6" d="M248.5,100.9c0.5-1.4,1-3,0.2-4.4c-1.2-1.8,1.2-2.4,2-3.6c0.6-1-0.4-1.6-0.6-2.6c-0.2-0.4-1-0.2-1.4-0.8
			c1.4-0.6,3.6-1.8,2.6-3.6c-0.6-1-1.6-2.6-0.4-3.6c1.4-0.8,3.6-0.6,4.2-2c1-2.4-1.2-4.4-2.4-6.4c-0.6-1.2-1.4-2-2.2-3.2
			c-0.8-1.4-1.8-2.6-2.2-4.2c-0.6-1.6,0.2-3,0.2-4.6c0.2-3-0.6-6-1.4-9c-0.6-1.4-0.8-3-1.4-4.4c-0.2-0.8-0.4-1.6-1-2.4
			c-0.2-0.4-0.2-1,0-1.4c0.8-0.6,1.6-1.2,2.4-2c0.6-1,0.2-2.4-0.8-3c-1.4-0.6-1.2,1.4-2.2,1.8c-0.2,0-0.4,0-0.6,0
			c-0.2-0.6,0.2-0.8,0.6-1.2c0-0.2,0-0.6-0.2-0.6c-0.8,0-1.6-0.2-1.8-0.6c-2-2.8-4.8-4.2-7.8-5.4c0.8,0.2,1.6,0.4,2.4,0.4
			c1.4,0.2,3,0.2,4.2-0.4c1-0.4,1.2-2,1.6-3c0.4-0.8-0.2-2-0.6-2.6c-1-1.6-2.6-2.6-4.2-3.4c31.5,0,63,0,94.5,0
			c0.2,29.5-0.2,59-0.4,88.5c-37.3,0.6-74.6,0-111.9,0c1.2-4,3.4-7.8,7-10.4c0.8-0.4,1.8-0.6,2.8-0.8c3.4,0,6.8,1,10.2,1.4
			c0.4,0,0.8,0.2,1.2,0.4c1.2,0.2,2.6,0.2,3.8-0.2C246.3,103.5,247.9,102.7,248.5,100.9z"/>
		<path class="st6" d="M240.9,61.6c-1.2-0.3-2.2,0-3.4,0c-1.6,0.4-3,0.6-4.4,1.2c1.2-0.8,2.4-1.6,3.8-2c1-0.2,2-0.8,3-0.8
			c1.2-0.2,2.4-0.6,3.4-0.2c1,0.4,2.6,0.4,2.8,1c0.4,1.2-0.6,2.4-1.8,3.2c-0.2,0.4,0.6,0.6,0.6,1c-0.2,0.4-0.8,0.6-1.2,0.6
			c-0.4,0.2-0.8,0.8-1.2,1.2c0.4,0,0,0.6,0.4,0.6c-0.8,1,0.4,3-0.8,3.4c-1.4,0.4-3,0.4-4.6,0c0.8-0.2,1.8,0.2,2.4-0.6
			c0-0.2,0-0.6,0-0.8c0-0.2-0.2-0.2-0.4-0.2c-0.2,0.2-0.4,0.2-0.4,0.2c0-0.4-0.4-0.8-0.6-0.8c-1.2,0.2-2.2-0.4-3-1.2
			c0.6-0.2,1.2-0.4,1.8-0.2c0.6,0,0.4-1,1-1.4c0.2,0,0.4,0,0.6,0c1.2-1.6,3.6-2,4-3.6C242.9,61.8,241.7,61.8,240.9,61.6z"/>
	</g>
</g>
<g id="Calque_2">
	<g>
		<path class="st7" d="M575.5,463.2"/>
		<path class="st7" d="M575.5,446.2"/>
		<path class="st8" d="M561.1,463.2"/>
	</g>
</g>
</svg>
