<?xml version="1.0" encoding="UTF-8"?>
<svg width="25px" height="25px" viewBox="0 0 25 25" version="1.1" xmlns="http://www.w3.org/2000/svg" xmlns:xlink="http://www.w3.org/1999/xlink">
    <!-- Generator: Sketch 47.1 (45422) - http://www.bohemiancoding.com/sketch -->
    <title>Download</title>
    <desc>Created with Sketch.</desc>
    <defs></defs>
    <g id="Page-1" stroke="none" stroke-width="1" fill="none" fill-rule="evenodd">
        <g id="Coral_Reff_Funding_Landscape_2" transform="translate(-1171.000000, -545.000000)" fill-rule="nonzero" fill="#FFFFFF">
            <g id="CSV-Button" transform="translate(1143.000000, 535.000000)">
                <g id="Download" transform="translate(28.000000, 10.000000)">
                    <path d="M23.9591837,17 C23.3826531,17 22.9183673,17.4561404 22.9183673,18.0225564 L22.9183673,22.9548872 L2.08163265,22.9548872 L2.08163265,18.0225564 C2.08163265,17.4561404 1.61734694,17 1.04081633,17 C0.464285714,17 0,17.4561404 0,18.0225564 L0,23.9774436 C0,24.5438596 0.464285714,25 1.04081633,25 L23.9591837,25 C24.5357143,25 25,24.5438596 25,23.9774436 L25,18.0225564 C25,17.4561404 24.5357143,17 23.9591837,17 Z" id="Shape"></path>
                    <path d="M11.2389919,17.6724823 C11.8236157,18.2556994 12.5404154,17.9339244 12.7590138,17.6724823 L18.7221769,11.327483 C19.1136207,10.9101811 19.0882023,10.2616035 18.6662564,9.87446807 C18.2443105,9.48733261 17.588515,9.51247128 17.202155,9.92977314 L13.0386166,14.3592061 L13.0386166,1.02565758 C13.0386166,0.457523724 12.5760012,0 12.0015447,0 C11.4270883,0 10.9644729,0.457523724 10.9644729,1.02565758 L10.9644729,14.3642339 L6.80093448,9.93480087 C6.4094907,9.51749901 5.75369527,9.49738808 5.33174938,9.87949581 C4.90980348,10.2666313 4.88946874,10.9152089 5.27582884,11.3325107 L11.2389919,17.6724823 L11.2389919,17.6724823 Z" id="Shape"></path>
                </g>
            </g>
        </g>
    </g>
</svg>