<?xml version="1.0" encoding="UTF-8"?>
<svg width="36px" height="36px" viewBox="0 0 36 36" version="1.1" xmlns="http://www.w3.org/2000/svg" xmlns:xlink="http://www.w3.org/1999/xlink">
    <!-- Generator: Sketch 47.1 (45422) - http://www.bohemiancoding.com/sketch -->
    <title>Facebook</title>
    <desc>Created with Sketch.</desc>
    <defs></defs>
    <g id="Page-1" stroke="none" stroke-width="1" fill="none" fill-rule="evenodd">
        <g id="Coral_Reff_Funding_Landscape_2" transform="translate(-1142.000000, -17.000000)" fill-rule="nonzero" fill="#FFFFFF">
            <g id="Social-Media-" transform="translate(1069.000000, 1.000000)">
                <g id="Group-3" transform="translate(27.000000, 16.000000)">
                    <g id="Facebook" transform="translate(46.000000, 0.000000)">
                        <path d="M18,0 C8.07484089,0 0,8.07484089 0,18 C0,27.9244341 8.07484089,36 18,36 C27.9244341,36 36,27.9244341 36,18 C36,8.07484089 27.9258842,0 18,0 Z M22.476436,18.6336905 L19.5479739,18.6336905 C19.5479739,23.3124144 19.5479739,29.0714573 19.5479739,29.0714573 L15.2085717,29.0714573 C15.2085717,29.0714573 15.2085717,23.368243 15.2085717,18.6336905 L13.1458149,18.6336905 L13.1458149,14.9446548 L15.2085717,14.9446548 L15.2085717,12.5585274 C15.2085717,10.8495932 16.0206235,8.17924756 19.5878514,8.17924756 L22.8034319,8.19157335 L22.8034319,11.7725771 C22.8034319,11.7725771 20.849432,11.7725771 20.4695078,11.7725771 C20.0895835,11.7725771 19.549424,11.9625393 19.549424,12.7774913 L19.549424,14.9453798 L22.8556352,14.9453798 L22.476436,18.6336905 Z" id="Shape"></path>
                    </g>
                </g>
            </g>
        </g>
    </g>
</svg>