<?xml version="1.0" encoding="UTF-8"?>
<svg width="38px" height="38px" viewBox="0 0 38 38" version="1.1" xmlns="http://www.w3.org/2000/svg" xmlns:xlink="http://www.w3.org/1999/xlink">
    <!-- Generator: Sketch 47.1 (45422) - http://www.bohemiancoding.com/sketch -->
    <title>linkedin-logo (1)</title>
    <desc>Created with Sketch.</desc>
    <defs></defs>
    <g id="Page-1" stroke="none" stroke-width="1" fill="none" fill-rule="evenodd">
        <g id="Coral_Reff_Funding_Landscape_2" transform="translate(-1230.000000, -17.000000)" fill-rule="nonzero" fill="#FFFFFF">
            <g id="Social-Media-" transform="translate(1069.000000, 1.000000)">
                <g id="linkedin-logo-(1)" transform="translate(161.000000, 16.000000)">
                    <path d="M19,0 C8.50655754,0 0,8.50655754 0,19 C0,29.4934425 8.50655754,38 19,38 C29.4934425,38 38,29.4934425 38,19 C38,8.50655754 29.4934425,0 19,0 Z M12.8417171,12.1491874 C11.6092469,12.1491874 10.6115729,11.1501141 10.6115729,9.91932299 C10.6118527,8.68965129 11.6092469,7.69057801 12.8417171,7.69057801 C14.0708291,7.69057801 15.0699024,8.68965129 15.0699024,9.91932299 C15.0699024,11.150394 14.0705493,12.1491874 12.8417171,12.1491874 Z M14.763464,26.2120533 L10.9182912,26.2120533 L10.9182912,13.8403358 L14.763464,13.8403358 L14.763464,26.2120533 L14.763464,26.2120533 Z M29.1649514,26.2120533 L25.322857,26.2120533 L25.322857,20.1955053 C25.322857,18.7607018 25.296271,16.9153546 23.3241507,16.9153546 C21.324325,16.9153546 21.0167672,18.4780508 21.0167672,20.09168 L21.0167672,26.2117735 L17.1749526,26.2117735 L17.1749526,13.8403358 L20.8628483,13.8403358 L20.8628483,15.5309245 L20.914621,15.5309245 C21.4281503,14.5581574 22.6818893,13.532778 24.552703,13.532778 C28.4462903,13.532778 29.1649514,16.0951071 29.1649514,19.4261909 L29.1649514,26.2120533 Z" id="Shape"></path>
                </g>
            </g>
        </g>
    </g>
</svg>