<?xml version="1.0" encoding="UTF-8"?>
<svg width="37px" height="37px" viewBox="0 0 37 37" version="1.1" xmlns="http://www.w3.org/2000/svg" xmlns:xlink="http://www.w3.org/1999/xlink">
    <!-- Generator: Sketch 47.1 (45422) - http://www.bohemiancoding.com/sketch -->
    <title>Mail</title>
    <desc>Created with Sketch.</desc>
    <defs></defs>
    <g id="Page-1" stroke="none" stroke-width="1" fill="none" fill-rule="evenodd">
        <g id="Coral_Reff_Funding_Landscape_2" transform="translate(-1096.000000, -17.000000)" fill-rule="nonzero" fill="#FFFFFF">
            <g id="Social-Media-" transform="translate(1069.000000, 1.000000)">
                <g id="Group-3" transform="translate(27.000000, 16.000000)">
                    <g id="Mail">
                        <path d="M18.4996917,0 C8.28271138,0 0,8.28290283 0,18.499815 C0,28.7164805 8.28271138,37 18.4996917,37 C28.7166719,37 37,28.7164805 37,18.499815 C37,8.28290283 28.7166719,0 18.4996917,0 Z M18.5000617,6.49800498 L29.4476808,13.3245732 L7.55244254,13.3245732 L18.5000617,6.49800498 Z M29.5840897,24.2257456 L29.5829797,24.2257456 C29.5829797,25.3207099 28.6955816,26.2079787 27.6007333,26.2079787 L9.39938999,26.2079787 C8.30441841,26.2079787 7.41714362,25.3205865 7.41714362,24.2257456 L7.41714362,13.7589576 C7.41714362,13.6431464 7.42898382,13.530542 7.44822414,13.4199109 L17.9080518,19.9422128 C17.9208787,19.9502295 17.9345689,19.9556562 17.9477658,19.9630563 C17.9615794,19.970703 17.9756396,19.9781031 17.9896998,19.9851332 C18.0635777,20.0232436 18.1396757,20.0539539 18.2175003,20.0740574 C18.2255171,20.0762774 18.2335339,20.0772641 18.2415507,20.0791141 C18.3268988,20.0992177 18.4133569,20.1117978 18.4996917,20.1117978 L18.5003083,20.1117978 C18.500925,20.1117978 18.5015417,20.1117978 18.5015417,20.1117978 C18.5878765,20.1117978 18.6743346,20.0995877 18.7596827,20.0791141 C18.7676995,20.0771408 18.7757163,20.0762774 18.7837331,20.0740574 C18.8614344,20.0539539 18.9372856,20.0232436 19.0115335,19.9851332 C19.0255938,19.9781031 19.039654,19.970703 19.0534676,19.9630563 C19.0665411,19.9556562 19.0803547,19.9502295 19.0931816,19.9422128 L29.5530092,13.4199109 C29.5722495,13.530542 29.5840897,13.6428998 29.5840897,13.7589576 L29.5840897,24.2257456 Z" id="Shape"></path>
                    </g>
                </g>
            </g>
        </g>
    </g>
</svg>