<?xml version="1.0" encoding="UTF-8"?>
<svg width="36px" height="36px" viewBox="0 0 36 36" version="1.1" xmlns="http://www.w3.org/2000/svg" xmlns:xlink="http://www.w3.org/1999/xlink">
    <!-- Generator: Sketch 47.1 (45422) - http://www.bohemiancoding.com/sketch -->
    <title>Twitter</title>
    <desc>Created with Sketch.</desc>
    <defs></defs>
    <g id="Page-1" stroke="none" stroke-width="1" fill="none" fill-rule="evenodd">
        <g id="Coral_Reff_Funding_Landscape_2" transform="translate(-1186.000000, -17.000000)" fill-rule="nonzero" fill="#FFFFFF">
            <g id="Social-Media-" transform="translate(1069.000000, 1.000000)">
                <g id="Group-3" transform="translate(27.000000, 16.000000)">
                    <g id="Twitter" transform="translate(90.000000, 0.000000)">
                        <path d="M18,0 C8.07484089,0 0,8.07484089 0,18 C0,27.9244341 8.07484089,36 18,36 C27.9244341,36 36,27.9244341 36,18 C36,8.07484089 27.9258842,0 18,0 Z M26.029888,13.8802868 C26.0378635,14.0586482 26.0422138,14.2384597 26.0422138,14.4182712 C26.0422138,19.8930959 21.8760976,26.2038991 14.2536857,26.2038991 C11.9139612,26.2038991 9.73592202,25.5201805 7.90300491,24.3441553 C8.22710062,24.3825828 8.5569967,24.402159 8.89124305,24.402159 C10.8329171,24.402159 12.6187062,23.7394667 14.0368968,22.6286957 C12.224281,22.5953436 10.6937082,21.3975671 10.1665995,19.7509869 C10.4189157,19.7988399 10.6792073,19.8256666 10.9452993,19.8256666 C11.3230484,19.8256666 11.6899219,19.7763635 12.037219,19.6813824 C10.141948,19.3014581 8.71433175,17.6273262 8.71433175,15.6189479 C8.71433175,15.6015468 8.71433175,15.5834206 8.7150568,15.5667445 C9.27334246,15.8763393 9.91210827,16.0634013 10.5907516,16.0844276 C9.47998067,15.3427052 8.74840893,14.0738742 8.74840893,12.6368324 C8.74840893,11.8769838 8.95214694,11.1649883 9.30886973,10.5530492 C11.3513252,13.0602594 14.4052203,14.7090147 17.8477403,14.8830259 C17.7766857,14.5792315 17.7411585,14.2638363 17.7411585,13.9382905 C17.7411585,11.6507694 19.595827,9.79537582 21.8833481,9.79537582 C23.0753243,9.79537582 24.150568,10.298558 24.9075163,11.1033594 C25.8522517,10.9177475 26.7368082,10.5740756 27.5394345,10.0977201 C27.2276645,11.065657 26.5729477,11.8769838 25.7152179,12.3903166 C26.5540965,12.2902602 27.3545477,12.068396 28.0948199,11.7385 C27.5423346,12.567953 26.8397648,13.2980746 26.029888,13.8802868 Z" id="Shape"></path>
                    </g>
                </g>
            </g>
        </g>
    </g>
</svg>